<?xml version="1.0"?>
<svg xmlns="http://www.w3.org/2000/svg" version="1.2" baseProfile="tiny" width="800" height="237" viewBox="0 0 800 237" stroke-linecap="round" stroke-linejoin="round">
<g id="Da_Na_Ha_Div_Du (1)">
<path d="M 789.29 186.39 790.58 186.27 791.23 186.38 792.45 186.6 793.21 187.15 795.67 188.95 796.13 189.14 798.53 190.1 799 191.04 798.72 192.47 798.17 193.73 797.67 194.27 796.59 195.41 795.11 196.52 793.02 197.25 792.83 197.32 791.85 197.65 790.54 198.11 789.06 198.63 788.8 198.72 787.96 200.19 787.73 200.59 787.63 201.21 787.47 202.28 787.46 202.35 787.5 202.93 787.52 203.38 787.6 204.78 787.62 205.12 787.68 206.08 787.76 206.24 787.77 206.27 788.24 207.3 788.86 208.66 789.27 209.55 789.97 209.97 792.55 211.5 792.79 211.58 793.86 211.93 794.58 212.17 794.61 212.17 794.71 213.35 795.08 217.49 795.38 219.42 795.55 220.49 794.23 222.7 793.8 223.44 793.58 223.88 793.28 224.31 793.06 224.55 792.56 224.86 791.39 225.17 790.7 225.63 789.93 226.13 788.71 226.93 788.36 227.16 788.36 227.22 788.48 229.35 788.54 230.53 788.56 230.86 788.65 232.44 788.53 232.52 788.21 232.75 787.2 233.47 787.03 233.59 785.94 234.37 784.79 235.19 784.2 235.61 782.69 236 781.54 234.82 781.29 234.55 780.63 233.85 780.49 233.65 780.29 233.35 778.88 231.29 777 229.26 776.52 228.74 775.91 228.66 775.29 228.58 774.77 228.51 774.29 228.45 772.9 228.01 772.88 228 772.59 227.91 772.34 227.83 772.24 227.8 770.11 227.12 769.19 225.93 769.03 225.71 768.91 225.56 768.86 225.51 768.43 224.94 768.28 224.89 767.46 224.61 766.34 225.84 765.69 226.53 765.65 226.58 764.4 227.01 762.83 227.08 761.82 226.93 760.93 226.79 759.65 225.85 758.98 225.36 758.49 224.82 757.66 223.89 757.02 223.92 756.71 223.93 755.15 222.42 754.51 221.82 754.43 221.74 753.6 221.67 751.75 221.52 751.37 221.49 750.98 221.46 748.89 221.29 748.61 221.27 747.53 221.18 747.21 221.11 746.02 220.86 744.6 220.55 743.55 220.32 741.55 219.89 740.64 220.68 740.65 220.9 740.77 223.73 740.81 224.73 740.81 224.77 740.87 226.27 740.9 227.04 740.95 228.18 740.98 228.93 741 229.49 741.03 230.07 741.04 230.45 739.29 230.52 739.24 230.52 739.15 230.52 738.95 230.55 738.86 230.54 738.16 230.16 736.29 229.14 735.84 228.72 734 226.99 732.63 225.71 731.7 224.84 731.27 224.13 731.06 223.78 731.04 223.74 730.81 223.35 730.22 222.35 729.33 220.86 729.24 220.7 729.21 220.65 728.99 220.29 728.74 219.86 728.08 218.75 727.54 217.85 726.85 217.44 726.3 217.13 725.63 216.75 725.21 216.51 724.36 216.02 724.75 214.84 724.87 214.48 724.97 214.22 725.05 214.07 725.8 211.52 725.87 211.3 725.94 211.08 726.57 209.2 726.61 208.93 726.61 208.91 726.62 208.89 726.76 208.14 726.78 208.06 726.85 207.69 726.52 207.44 726.18 207.18 725.68 206.8 725.45 206.64 725.28 206.51 724.48 205.9 724.19 206.41 724.06 206.65 724.02 206.73 723.96 206.84 723.88 206.99 723.77 207.54 723.58 208.53 723.5 208.69 723.51 209.37 723.49 210.19 723.49 210.25 723.48 210.57 723.28 211.76 723.15 212.33 723.01 212.53 722.68 213.01 722.62 213.1 722.36 213.46 721.4 213.84 721.29 213.89 721.05 213.98 720.99 214 720.54 214.16 720.08 214.32 718.9 214.83 717.78 214.98 717.22 215.05 716.42 215.01 716.08 214.3 715.13 213.4 713.78 211.23 713.73 211.15 713.53 210.78 712.88 210.03 712.82 209.98 712.57 209.77 711.95 209.23 711.91 209.01 712.08 208.44 713.2 206.08 713.23 206.03 713.67 205.12 714.57 203.23 714.67 203.03 714.96 202.43 715.45 201.4 715.71 200.85 715.97 200.31 716.1 200.04 716.11 200.01 716.17 199.01 716.25 197.48 716.27 197.21 716.28 196.97 716.3 196.56 716.37 195.34 716.26 194.41 716.2 193.94 716.15 193.56 715.87 193.46 714.64 193.03 712.95 192.43 712.8 192.38 712.71 189.13 712.33 187.56 711.81 185.39 710.85 181.41 712.19 180.51 712.56 179.08 712.37 177.8 712.23 176.83 711.01 174.78 710.58 174.07 710.44 173.95 709.96 173.54 709.91 173.5 709.89 173.49 709.12 172.97 706.64 171.67 706.55 171.63 705.9 171.38 705.53 171.23 705.36 171.17 704.84 170.97 704.4 170.8 703.74 170.69 703.57 170.66 703.11 170.58 701.74 170.35 700.78 169.69 700.44 169.26 699.74 168.38 699.02 167.49 697.49 165.58 697.15 165.15 697 164.98 695.23 162.76 694.96 162.43 694.86 161.98 694.85 161.92 694.67 161.84 694.56 161.78 694.56 161.68 694.43 161.68 694.42 161.59 694.31 161.57 694.21 161.6 694.08 161.52 694.02 161.47 694.03 161.11 694.11 161.11 694.13 160.58 694.21 160.35 694.48 160.34 694.47 160.32 694.94 159.45 695.25 158.88 695.37 158.76 695.39 158.74 695.47 158.67 696.37 157.85 697.21 157.08 699.86 155.71 699.9 155.66 699.94 155.61 700.07 155.45 700.99 154.32 702.55 153.87 703.48 154.15 704.18 154.36 705.39 155.13 705.52 155.22 706.47 155.82 707.26 156.67 708.54 158.01 708.99 158.47 709.41 158.93 710.65 160.23 710.75 160.29 712.26 161.23 713.43 161.46 714.15 161.59 714.57 161.49 714.63 161.48 714.79 161.44 714.89 161.41 715.17 161.35 715.35 161.31 715.43 161.3 715.52 161.28 715.54 161.26 715.58 161.23 716.67 160.35 716.78 160.26 716.97 159.94 717.19 159.7 717.37 159.51 717.36 159.38 717.38 159.08 717.39 158.93 717.41 158.63 717.41 158.62 717.42 158.42 717.45 158.01 717.46 157.84 717.48 157.55 717.48 157.48 717.51 157.01 717.53 156.73 717.54 156.7 717.59 155.87 717.63 155.3 717.64 155.16 717.69 154.43 717.7 154.35 717.92 154.34 718.05 154.33 718.1 154.32 718.12 154.32 718.16 154.32 719.82 154.19 721.33 154.07 721.37 154.06 721.55 154.05 721.74 154.04 722.17 154 722.4 154.03 724.34 154.25 724.53 154.27 726.85 154.9 727.93 154.77 727.97 154.73 727.98 154.71 728 154.68 728.19 154.41 728.39 154.14 728.41 153.95 728.48 153.02 727.97 150.98 727.97 150.92 727.97 149.61 727.96 149.13 727.83 148.77 727.76 148.59 727.54 148 727.44 147.73 727.33 147.43 727.26 147.23 727.03 146.62 726.96 146.42 727.1 146.3 727.72 145.78 728.55 146.31 728.95 146.8 729.38 147.34 729.54 147.98 729.58 148.38 729.59 148.55 729.76 150.34 729.86 151.43 730.02 153.09 729.99 153.68 731.07 154.3 731.1 154.32 731.31 154.37 731.88 154.49 733.25 154.79 733.41 154.83 733.65 154.88 735.13 154.99 735.26 155.01 736.01 154.71 736.58 154.26 736.62 154 736.67 153.67 736.76 153.03 737.16 150.28 737.18 150.18 737.18 149.88 737.19 149.01 737.19 148.94 737.21 146.56 737.22 146.06 738.17 143.89 738.38 143.79 738.84 143.57 739.75 143.13 740.94 143.05 741.73 142.99 743.69 142.85 744.85 142.59 745.34 142.48 745.5 142.38 746.61 141.66 749.16 141.83 749.73 142.31 750.37 142.85 751.94 142.61 752.07 142.45 752.07 142.44 754.11 139.89 754.17 139.81 754.23 139.64 754.29 139.48 754.33 139.37 754.37 139.26 754.41 139.15 754.77 138.17 754.78 138.07 754.8 137.95 754.87 137.42 754.97 136.67 755.37 133.71 755.47 133.01 755.48 132.96 755.51 132.7 755.92 131.47 756.21 131.24 757.03 131.17 757.58 131.12 757.64 131.19 757.96 131.57 758.24 131.89 758.7 132.41 759.29 133.1 759.91 133.81 760.66 135.77 761.06 136.84 761.19 137.18 762.28 139.21 762.37 139.37 762.48 140.22 762.53 140.57 762.2 141.27 762.11 141.48 761.55 142.69 761.48 142.84 761.46 142.95 761.33 143.68 761.33 143.69 761.19 144.43 761.18 144.5 760.92 146 760.72 147.15 760.67 147.42 759.94 148.12 759.76 148.79 759.54 149.62 759.43 150.05 760.38 150.36 760.49 150.34 762.47 150.09 764.96 149.77 766.72 149.93 768.02 148.84 768.44 148.49 768.59 147.59 768.73 146.75 768.87 146.52 769.28 145.82 771.16 146.03 772.65 145.85 772.91 145.82 774.75 145.88 775.32 145.9 775.96 145.92 777.24 146.31 777.36 146.35 778.34 147.07 778.74 147.61 779.15 148.18 779.99 147.94 780.29 147.86 780.53 147.79 781.1 147.63 781.32 147.57 781.37 147.66 781.62 148.12 781.31 149.17 781.31 149.38 781.27 151.46 781.45 152.26 782.13 155.2 782.08 155.46 781.96 156.08 781.91 156.35 781.04 156.99 780.85 157.13 780.54 157.26 779.86 157.56 779.55 157.69 779.22 157.71 778.58 157.75 777.79 157.38 776.57 157.37 775.54 157.18 774.65 156.87 774.25 156.59 773.84 156.69 773.82 157.73 773.67 158.26 773.28 159.54 772.93 159.66 772.02 158.49 771.89 158.44 771.18 158.22 771.03 158.17 770.8 158.35 770.08 159.4 769.58 160.12 769.54 162.39 768.98 163.53 767.57 165.15 764.57 165.81 763.58 166.33 763.4 166.42 763.27 166.55 761.32 168.71 759.55 170.67 758.03 172.44 757.92 172.58 758.25 173.68 758.25 173.71 758.35 174.02 758.36 174.05 758.58 174.76 756.15 175.65 755.66 175.83 751.92 174.53 750.77 174.12 750.58 174.16 750.39 174.2 748.83 174.51 747.12 175.53 745.03 178.21 744.91 178.36 743.71 181.92 743.5 182.54 743.28 183.19 743.26 183.26 743.16 183.56 742.82 184.54 742.9 184.76 743.26 185.56 743.32 185.68 743.66 186.35 743.69 186.41 744.01 186.41 744.11 186.41 744.2 186.42 744.36 186.44 744.47 186.46 744.88 186.51 745.8 186.95 746.12 187.81 746.26 188.18 746.23 191.32 746.21 193.35 746.18 193.59 746.02 194.82 746.01 194.84 745.98 195.13 745.97 195.18 745.66 197.56 745.6 198.04 746.41 198.93 746.64 199.19 747.57 199.66 748.05 199.9 748.71 200.23 748.99 200.38 749.04 200.37 750.37 200.24 750.46 199.75 750.86 197.27 751.55 195.69 751.93 195.32 752.01 195.24 752.03 195.22 752.52 194.75 752.77 194.51 753.06 194.48 753.17 194.46 753.34 194.44 753.68 194.4 754.81 194.96 755.6 197.83 755.95 198.46 756.12 198.77 756.26 198.87 756.27 198.89 756.73 199.24 757.24 199.34 757.45 199.38 759.42 199.77 760.78 199.64 761.71 199.55 763.48 200.37 763.6 200.36 764.53 200.22 764.19 199.67 763.69 198.87 763.86 198.01 765.34 197.08 766.1 196.61 766.85 195.55 767.03 195.31 767.2 195.06 768.44 194.79 769.93 195.2 770.89 195.47 771.02 195.5 772.05 194.89 772.4 194.4 772.84 193.8 772.82 193.48 772.8 193.18 772.76 192.55 772 191.38 771.84 191.15 771.49 190.6 770.68 189.96 770.54 189.49 769.16 185.04 769.37 184.18 770.59 183.31 771.97 183.78 772.62 184.42 772.8 184.59 773.27 184.93 774.55 185.03 774.57 185.03 775.35 185.09 775.48 185.1 775.6 185.11 776.64 185.18 778.5 185.79 779.86 185.25 782.32 182.77 782.65 184.86 782.65 184.88 782.82 184.92 782.92 184.94 783.18 185.01 783.69 185.13 785.17 185.48 786.05 186.12 786.11 186.17 787.66 186.54 789.29 186.39 Z M 715.95 176.21 715.92 176.25 715.93 176.39 715.93 176.43 715.92 176.53 715.92 176.63 716.01 177.06 716.02 177.5 716.04 177.65 716.1 177.73 716.49 178.24 716.69 178.49 716.83 178.67 716.92 178.78 716.99 179.01 717 179.12 717.01 179.14 717 179.31 717.01 179.41 717.12 179.55 717.22 179.68 717.44 179.88 717.88 180.21 718.02 180.37 718.16 180.54 718.29 180.63 718.44 180.63 718.76 180.56 718.82 180.55 718.93 180.54 718.99 180.58 719.07 180.62 719.16 180.68 719.24 180.74 719.27 180.77 719.4 180.87 719.46 180.97 719.6 181.04 719.91 181.03 720.09 181.07 720.19 181.09 720.36 181.15 720.43 181.22 720.46 181.24 720.56 181.3 720.6 181.33 720.75 181.35 720.77 181.35 720.82 181.35 721.12 181.36 721.19 181.37 721.35 181.38 721.53 181.43 721.66 181.47 721.68 181.48 721.91 181.54 722.14 181.55 722.24 181.59 722.38 181.57 722.66 181.47 722.78 181.36 722.85 181.35 723.11 181.3 723.33 181.25 723.57 181.18 723.59 181.17 723.74 181.08 723.87 180.97 723.91 180.89 723.98 180.74 724 180.72 724.09 180.53 724.2 180.29 724.27 180.14 724.4 180.04 724.66 179.88 724.69 179.86 724.92 179.64 724.96 179.6 725.07 179.49 725.15 179.41 725.23 179.25 725.26 179.18 725.28 179.15 725.35 178.97 725.39 178.78 725.41 178.64 725.45 178.48 725.56 178.37 725.65 178.29 725.7 178.18 725.69 178.1 725.76 177.97 725.87 177.92 726.1 177.76 726.42 177.53 726.74 177.18 726.81 176.9 726.82 176.47 726.82 176.41 726.79 175.98 726.76 175.69 726.75 175.59 726.68 175.4 726.43 175.04 726.24 174.56 726.01 174.24 725.88 174.05 725.5 173.61 725.26 173.54 724.9 173.43 724.51 173.28 724.25 173.19 724.12 173.14 724.02 173.15 723.89 173.16 723.79 173.23 723.72 173.23 723.71 173.24 723.65 173.22 723.62 173.21 723.38 173.09 723.23 173.01 723.12 172.95 722.56 172.87 722.15 172.75 721.9 172.64 721.7 172.6 721.66 172.6 721.64 172.59 721.45 172.6 721.24 172.66 721.17 172.68 720.68 172.74 720.56 172.76 720.45 172.78 720.4 172.78 720.21 172.8 719.94 172.83 719.92 172.83 719.72 172.86 719.56 172.88 719.5 172.88 719.38 173 719.28 173.08 719.22 173.13 718.96 173.27 718.82 173.35 718.69 173.46 718.61 173.55 718.45 173.6 718.42 173.61 718.17 173.71 717.93 173.81 717.65 174.06 717.52 174.29 717.44 174.43 717.42 174.61 717.4 174.7 717.31 174.89 717.22 174.94 717.04 174.96 717.01 174.94 716.95 174.92 716.91 174.92 716.88 174.93 716.76 174.94 716.63 175.07 716.48 175.52 716.26 175.95 716.23 175.98 716.16 176.06 716.07 176.14 715.97 176.18 715.95 176.21 Z" fill-rule="evenodd" id="465"/>
<path d="M 670.11 133.3 669.92 133.31 669.7 133.31 669.51 133.31 669.31 133.31 669.11 133.3 668.91 133.3 668.7 133.29 668.49 133.27 668.29 133.26 668.08 133.24 667.87 133.22 667.66 133.19 667.55 133.17 667.45 133.16 667.35 133.14 667.24 133.12 667.14 133.1 667.04 133.08 666.94 133.05 666.84 133.03 666.74 133 666.65 132.97 666.55 132.94 666.45 132.9 666.36 132.87 666.27 132.83 666.18 132.79 666.09 132.75 666.01 132.71 665.92 132.65 665.83 132.61 665.76 132.56 665.74 132.55 665.67 132.5 665.59 132.45 665.51 132.39 665.44 132.33 665.36 132.27 665.28 132.21 665.21 132.14 665.14 132.08 665.06 132.01 664.99 131.95 664.84 131.81 664.7 131.67 664.43 131.37 664.41 131.38 664.4 131.4 664.38 131.41 664.36 131.43 664.33 131.45 664.29 131.48 664.27 131.5 664.25 131.52 664.23 131.54 664.21 131.56 664.19 131.59 664.17 131.61 664.14 131.64 664.09 131.69 664.04 131.74 663.99 131.79 663.94 131.84 663.89 131.88 663.84 131.93 663.8 131.97 663.76 132.02 663.71 132.06 663.67 132.11 663.63 132.14 663.59 132.19 663.55 132.23 663.51 132.26 663.48 132.29 663.47 132.3 663.43 132.33 663.42 132.34 663.39 132.37 663.34 132.4 663.3 132.43 663.25 132.46 663.2 132.48 663.15 132.51 663.1 132.54 663.04 132.56 662.99 132.58 662.88 132.63 662.82 132.65 662.77 132.68 662.71 132.7 662.66 132.73 662.61 132.77 662.56 132.8 662.53 132.82 662.51 132.84 662.49 132.86 662.47 132.88 662.45 132.91 662.43 132.93 662.41 132.96 662.39 132.98 662.37 133.01 662.36 133.04 662.32 133.09 662.3 133.16 662.28 133.22 662.25 133.28 662.23 133.35 662.18 133.49 662.13 133.62 662.11 133.69 662.08 133.76 662.06 133.82 662.02 133.89 662.01 133.92 661.99 133.95 661.97 133.98 661.95 134 661.94 134.03 661.92 134.06 661.89 134.08 661.87 134.1 661.84 134.12 661.82 134.14 661.8 134.16 661.77 134.17 661.74 134.19 661.71 134.2 661.69 134.21 661.65 134.22 661.62 134.23 661.59 134.23 661.56 134.24 661.53 134.24 661.46 134.25 661.39 134.25 661.33 134.25 661.26 134.25 661.19 134.25 661.12 134.24 660.99 134.24 660.85 134.23 660.72 134.21 660.59 134.19 660.46 134.17 660.33 134.15 660.2 134.13 660.06 134.17 659.26 134.43 656.82 134.78 656.76 134.82 656.71 134.85 656.65 134.89 656.59 134.92 656.53 134.95 656.47 134.99 656.41 135.01 656.35 135.04 656.29 135.06 656.22 135.08 656.16 135.11 656.1 135.12 656.03 135.15 655.97 135.16 655.9 135.18 655.77 135.21 655.5 135.26 655.37 135.28 655.23 135.31 655.17 135.33 655.1 135.35 655.03 135.37 654.97 135.39 654.91 135.41 654.84 135.43 654.78 135.46 654.72 135.49 654.66 135.52 654.6 135.56 654.54 135.59 654.48 135.63 654.43 135.67 654.37 135.71 654.31 135.75 654.26 135.8 654.21 135.85 654.15 135.9 654.1 135.94 654.05 135.99 654 136.05 653.95 136.1 653.91 136.16 653.86 136.21 653.81 136.27 653.77 136.32 653.72 136.38 653.68 136.44 653.64 136.5 653.6 136.56 653.52 136.68 653.44 136.81 653.39 136.89 653.36 136.93 653.21 137.18 653.14 137.29 653.06 137.42 652.98 137.54 652.9 137.65 652.86 137.71 652.82 137.77 652.78 137.82 652.73 137.88 652.69 137.93 652.64 137.98 652.59 138.04 652.55 138.09 652.5 138.14 652.43 138.2 652.39 138.23 652.34 138.28 652.29 138.33 652.23 138.37 652.18 138.41 652.13 138.46 652.01 138.55 651.9 138.63 651.83 138.67 651.78 138.71 651.71 138.74 651.66 138.78 651.6 138.81 651.53 138.85 651.47 138.88 651.41 138.91 651.35 138.94 651.28 138.97 651.22 139 651.15 139.03 651.09 139.05 651.02 139.07 650.96 139.08 650.89 139.1 650.82 139.12 650.75 139.13 650.68 139.14 650.62 139.15 650.55 139.16 650.48 139.17 650.33 139.18 650.19 139.2 650.05 139.21 649.9 139.22 649.83 139.22 649.76 139.22 649.69 139.22 649.61 139.21 649.58 139.21 649.54 139.21 649.51 139.2 649.47 139.2 649.44 139.18 649.41 139.17 649.37 139.16 649.34 139.15 649.3 139.13 648.85 139.23 649.27 138.5 650.17 138.11 650.68 137.48 651.26 136.52 652.12 135.44 652.6 134.84 653.19 134.58 654.15 134.35 654.7 134.51 655.23 134.78 656.2 134.63 656.72 134.69 657.06 134.63 657.96 134.34 658.99 134.23 659.41 134.1 659.69 133.68 660.59 132.67 661.63 131.56 662.58 130.18 663.02 129.39 663.33 129.1 663.58 128.62 663.47 127.59 663.57 127.28 663.71 126.7 663.77 126.53 664.2 125.29 664.39 124.54 664.63 123.94 664.95 123.14 664.97 123.08 665.16 122.58 665.64 120.54 665.73 118.16 665.4 116.63 665.17 116.5 665.08 116.34 665.11 116.2 665.18 116.14 665.34 116.14 665.55 116.2 665.72 115.99 665.75 115.72 663.89 115.08 663.84 114.72 663.61 113.78 663.52 113.22 665.85 112.67 665.94 111.11 665.55 107.38 666.41 102.97 666.81 102.57 667.92 100.97 668.16 100.78 668.55 100.31 669.74 99.07 670.22 98.52 670.66 97.98 673.14 96.69 673.81 96.15 674.62 95.91 675.5 95.65 676.02 95.4 676.91 94.65 677.42 94.56 677.53 94.54 678.16 94.56 679.85 94.62 685.19 94.84 685.45 94.77 685.64 94.72 685.84 94.66 686.05 94.6 686.28 94.53 686.45 94.48 686.56 94.45 686.66 94.42 686.68 94.41 686.76 94.39 686.86 94.37 686.96 94.35 687.01 94.35 687.06 94.34 687.11 94.33 687.17 94.33 687.21 94.33 687.26 94.33 687.32 94.33 687.37 94.33 687.41 94.34 687.46 94.35 687.51 94.35 687.56 94.36 687.61 94.38 687.66 94.39 687.71 94.41 687.75 94.43 687.8 94.45 687.84 94.48 687.89 94.51 687.93 94.53 687.97 94.56 688.01 94.6 688.05 94.63 688.09 94.66 688.12 94.7 688.15 94.74 688.18 94.78 688.2 94.82 688.22 94.87 688.24 94.91 688.26 94.96 688.27 95 688.28 95.05 688.29 95.1 688.29 95.15 688.3 95.2 688.3 95.24 688.3 95.3 688.3 95.35 688.29 95.4 688.28 95.51 688.27 95.62 688.26 95.69 688.25 95.72 688.23 95.83 688.22 95.93 688.21 96.04 688.19 96.14 688.18 96.26 688.16 96.55 688.15 96.85 688.15 97 688.15 97.05 688.15 97.16 688.15 97.26 688.16 97.36 688.17 97.47 688.18 97.57 688.19 97.62 688.2 97.67 688.21 97.72 688.23 97.76 688.24 97.81 688.26 97.86 688.28 97.9 688.29 97.95 688.32 98 688.34 98.04 688.36 98.08 688.39 98.12 688.41 98.16 688.45 98.2 688.48 98.24 688.51 98.27 688.54 98.31 688.58 98.35 688.61 98.38 688.65 98.41 688.73 98.48 688.81 98.55 688.88 98.6 688.9 98.61 688.95 98.63 689.06 98.71 689.14 98.77 689.22 98.82 689.3 98.87 689.39 98.92 689.46 98.97 689.54 99.01 689.61 99.06 689.77 99.15 689.91 99.23 690.07 99.32 690.15 99.36 690.23 99.4 690.3 99.45 690.39 99.5 690.48 99.54 690.57 99.59 690.66 99.64 690.76 99.69 690.86 99.74 690.92 99.77 690.97 99.79 691.03 99.82 691.08 99.85 691.2 99.91 691.32 99.97 691.72 100.52 691.67 101.44 691.6 102.84 691.58 103.11 691.54 104 691.49 104.86 691.48 105.11 691.37 107.13 691.59 107.57 691.73 107.58 691.78 107.58 692 107.58 692.06 107.59 692.25 107.62 692.31 107.63 692.45 107.65 692.82 108.18 693.3 108.39 693.62 108.54 693.72 108.6 693.84 108.68 694.04 108.8 694.46 109.2 694.64 109.41 694.83 109.53 694.8 109.58 694.84 109.61 694.92 109.66 695.08 109.75 695.22 109.84 695.31 109.88 695.6 110 695.82 110.09 696.12 110.2 696.16 110.22 696.2 110.24 696.34 110.27 696.08 110.71 696.03 110.78 695.92 110.96 695.82 111.11 695.71 111.29 695.67 111.34 695.66 111.36 695.65 111.39 695.49 111.79 695.47 111.85 695.46 111.89 695.5 111.92 695.59 111.99 695.76 112.05 695.78 112.05 695.87 112.08 695.96 112.22 695.96 112.26 695.96 112.36 695.96 112.65 695.89 112.78 695.86 112.85 695.65 113.3 695.32 113.55 695.06 113.69 694.94 113.75 694.81 113.8 694.68 113.86 694.62 113.89 694.46 113.96 694.06 114.24 693.7 114.73 693.34 115.17 692.58 115.44 692.55 115.49 692.34 115.87 692.2 116.17 691.84 116.81 691.64 117.18 691.5 117.42 690.9 118.55 690.39 119.5 690.36 119.56 689.97 120.28 689.24 121.64 689.22 121.68 689.06 121.97 688.89 122.3 688.78 122.48 688.75 122.56 688.76 122.67 688.78 122.78 688.9 123.5 688.92 123.6 689.03 124.31 689.04 124.41 688.05 124.31 687.84 124.28 686.19 124.1 685.53 124.01 685.52 124.03 685.54 124.04 685.91 124.19 688.58 125.32 688.7 125.37 688.77 125.39 689.12 125.55 689.37 125.65 689.36 125.67 689.24 126.32 688.96 126.43 688.93 126.44 688.55 126.59 688.03 126.74 687.56 126.88 687.14 127.1 686.68 127.34 686.17 127.89 685.97 128.12 685.96 128.14 685.88 128.25 685.48 128.77 685.34 128.96 685.16 129.48 684.95 129.72 684.82 129.76 684.7 129.79 684.65 129.8 684.61 129.82 684.37 129.89 684.09 129.92 683.74 129.96 683.27 130.02 681.66 130.3 681.57 130.33 680.14 130.78 679.94 130.86 678.36 131.48 678.1 131.57 677.85 131.67 675.92 132.36 675.89 132.27 675.85 132.18 675.83 132.1 675.79 132.01 675.74 131.93 675.72 131.89 675.69 131.85 675.67 131.81 675.65 131.78 675.62 131.74 675.6 131.71 675.57 131.68 675.55 131.66 675.51 131.62 675.48 131.6 675.46 131.58 675.43 131.56 675.4 131.54 675.37 131.53 675.34 131.51 675.31 131.51 675.28 131.5 675.24 131.49 675.21 131.49 675.18 131.5 675.14 131.5 675.11 131.51 675.07 131.51 675.04 131.52 675 131.54 674.97 131.55 674.93 131.57 674.9 131.59 674.86 131.61 674.82 131.63 674.79 131.65 674.75 131.68 674.71 131.71 674.67 131.74 674.64 131.75 674.59 131.79 674.52 131.86 674.51 131.86 674.43 131.92 674.35 131.98 674.27 132.06 674.1 132.19 674.02 132.26 673.94 132.33 673.85 132.39 673.76 132.46 673.68 132.51 673.59 132.57 673.51 132.62 673.42 132.67 673.33 132.72 673.25 132.76 673.2 132.78 673.16 132.8 673.07 132.83 672.99 132.87 672.9 132.9 672.81 132.94 672.72 132.97 672.64 132.99 672.55 133.02 672.45 133.04 672.37 133.06 672.28 133.08 672.19 133.1 672.09 133.11 672 133.13 671.82 133.16 671.64 133.18 671.45 133.2 671.27 133.22 671.08 133.24 670.89 133.26 670.7 133.27 670.5 133.28 670.3 133.29 670.16 133.29 670.11 133.3 Z" id="463"/>
<path d="M 43.61 1.96 44.4 1.58 45.16 1.37 46.16 1.18 46.77 1.14 46.84 1.14 46.97 1.13 47.49 1.21 47.97 1.8 48.25 2.46 48.32 2.61 48.1 3.28 46.84 3.62 46.06 4.06 44.27 5 43.3 5.61 42.5 6.55 42.03 7.51 41.7 8.25 41.64 8.84 42.01 9.61 42.64 10.14 43.4 10.47 44.01 10.64 44.75 10.69 44.85 10.76 44.54 11.33 44.39 11.52 44.25 11.65 44.06 11.76 43.95 11.76 43.59 12.15 43.51 12.32 43.41 12.43 43.3 12.5 43.05 12.6 42.69 12.59 42.51 12.62 42.31 12.7 41.96 12.94 41.85 12.98 41.7 12.99 41.44 12.83 40.93 12.86 40.56 13.04 39.97 13.51 38.73 14.03 38.4 14.13 38.26 14.26 38.24 14.48 38.2 14.62 38.09 14.72 37.83 14.88 37.71 14.99 37.71 15.16 37.7 15.28 37.62 15.43 37.35 15.51 37.06 15.43 37.06 15.25 37.15 15.2 37.24 15.11 37.25 14.98 37.17 14.81 37.1 14.73 36.97 14.74 36.82 14.71 36.66 14.79 36.58 15.04 36.49 15.15 36.42 15.01 36.35 14.6 36.2 14.49 36.07 14.49 35.97 14.55 35.87 14.72 35.8 14.76 35.7 14.77 35.63 14.71 35.59 14.58 35.32 13.83 35.01 13.6 34.73 13.59 34.45 13.77 34.24 13.79 33.91 13.86 33.26 14.11 32.99 14.17 32.19 14.15 31.53 14.19 31.06 14.27 30.08 14.73 29.77 14.82 29.6 14.83 29.23 14.76 28.43 14.15 28.14 14.06 27.94 14.12 27.82 14.22 27.72 14.26 27.45 14.22 26.43 14.05 26.12 13.94 24.69 13.47 24.57 13.38 24.5 13.05 24.26 12.85 23.64 12.6 22.45 12.31 21.06 12.18 20.52 12.17 18.81 12.54 18.46 12.68 17.71 13.07 17.25 13.41 16.95 13.7 16.79 13.97 16.69 14.28 16.73 14.68 16.88 15.05 16.97 15.3 17.06 15.62 16.97 15.82 16.04 16.37 15.7 16.38 15.53 16.28 15.49 16.1 15.54 15.87 15.5 15.74 15.43 15.64 15.31 15.57 15 15.55 14.83 15.63 14.79 15.84 14.62 15.93 13.93 15.96 12.28 16.27 11.98 16.35 11.53 16.36 11.19 16.31 10.97 16.27 10.59 16.19 9.76 15.55 7.4 14.43 4.68 13.72 3.2 13.45 1.61 13.53 1.55 13.46 1.44 13.33 1.3 13.03 1.18 12.64 1.11 12.39 1.04 12.06 1.02 11.76 1.03 11.41 1.06 11.22 1.17 11.05 1.24 10.97 1.24 10.92 1.31 10.77 1.35 10.66 1.37 10.25 1.39 9.81 1.36 9.79 1.32 9.76 1.24 9.72 1.13 9.69 1 9.64 1.2 9.63 1.35 9.63 1.39 9.6 1.48 9.51 1.65 9.23 1.86 8.89 2.32 8.5 3.41 6.82 3.56 6.6 4.08 5.98 4.86 5.67 5.74 5.43 7.12 5.2 8.57 5.03 10.35 4.51 10.61 4.43 12.03 3.98 12.77 3.49 13.2 3.14 13.47 2.93 13.94 2.72 14.46 2.63 14.58 2.61 15.26 2.57 16.01 2.43 16.25 2.2 16.44 2.06 16.84 1.76 17.49 1.35 17.57 1.33 18.19 1.12 18.99 1.06 20.14 1.12 21.08 1.25 21.88 1.38 22.96 1.36 23.47 1.34 24.64 1.26 25.82 1.26 27.38 1.26 30.22 1.63 32.09 1.67 34.18 1.68 36.54 1.57 37.99 1.49 38.41 1.45 39.28 1.36 40.61 1.15 41.82 1 42.59 1.11 43.06 1.51 43.61 1.96 Z" id="464"/>
</g>
</svg>