<?xml version="1.0"?>
<svg xmlns="http://www.w3.org/2000/svg" version="1.2" baseProfile="tiny" width="800" height="487" viewBox="0 0 800 487" stroke-linecap="round" stroke-linejoin="round">
<g id="Ladakh">
<path d="M 438.92 393.68 437.31 392.83 436.24 391.12 435.24 389.93 435.22 388.7 435.48 386.65 434.79 385.4 433.65 384.45 432.77 383.58 430.46 383.29 429.14 382.11 428.38 380.43 427.96 378.27 428.35 376.74 426.35 375.49 424.71 374.98 423.18 374.75 420.99 373.7 419.68 371.47 417.57 370.13 415.16 368.89 412.96 366.64 412.79 366.47 410.73 363.99 408.26 364.6 406.3 364.91 404.53 364.03 403.41 362.51 402.44 361.4 401.8 360.67 401.07 359.95 400.54 359.42 399.27 358.16 397.12 357.86 395.63 359.34 393.75 360.45 391.44 361.05 389.29 361.89 387.59 361.24 387.84 359.01 388.61 355.81 389.67 352.98 390.3 350.02 390.45 347.89 390.28 346.62 389.58 344.18 387.33 342.04 386.23 339.86 382.63 334.92 379.58 330.4 376.41 328.48 374.61 326.04 369.72 320.25 366.16 317.97 362.59 319.57 359.34 320.35 356.22 320.46 352.91 319.92 350.02 318.56 347.03 316.3 344.42 314.17 341.98 311.47 339.47 309.29 336.78 305.7 335.2 301.35 332.81 298.55 330.11 297.06 329.65 295.88 327.96 295.51 326.6 295.47 324.48 294.69 322.98 293.94 321.3 293.82 319.02 293 316.23 290.64 313.25 288.43 310.66 285.69 308.29 283.36 306.66 282 304.99 279.88 303.06 278.5 303.57 276.62 302.95 275.89 302.81 275.04 302.1 273.56 301.21 272.36 300.46 271.06 299.86 269.43 299.36 266.94 300.44 264.63 301.64 262.5 301.8 260.55 298.84 257.78 296.51 257.1 294.75 256.41 292.55 254.13 290.46 250.98 289.58 249.17 289.49 247.33 290.23 244.51 291.09 242.02 290.93 239.89 290.98 236.86 289.78 233.83 287.99 232.48 285.4 230.73 283.53 229 282.92 227.27 280.73 224.18 279.4 224.12 277.43 226.05 275.66 229.05 273.75 229.5 272.57 227.84 270.43 228.86 269.1 230.33 266.22 231.24 264.15 233.63 261.06 235.35 260.23 234.44 258.84 231.74 257.9 230.69 257.22 229.58 255.5 228.74 250.16 227.23 248.07 227.17 244.62 226.01 242.75 225.18 241.36 223.58 239.88 222.21 238.33 221.42 236.65 221.24 235 220.69 233.13 223.37 232.8 221.38 233.13 219.81 233.08 218.86 233.23 217.58 233.38 214.55 234.12 212.58 235.55 209.93 231.71 208.46 227.39 205.49 224.43 204.8 222.27 203.36 218.64 200.43 217.55 198.89 216.54 199.45 215.34 200.44 214.14 200.44 211.79 201.57 206.98 203.25 202.3 206.64 199.47 206.51 198.1 206.09 196.74 204.1 195.38 202.97 193.18 202.72 191.15 201.94 189.2 201.33 182.47 200.42 180.27 200.66 178.12 200.35 175.57 200.14 173.19 200.33 165.36 201.99 164.22 202.21 164.17 202.17 163.9 201.92 163.37 201.87 163.4 201.74 163.5 201.41 163.92 201.04 164.01 200.9 163.57 200.68 163.12 200.39 162.72 200.17 162.71 200.16 162.69 200.17 162.35 200.34 162.11 200.34 161.87 200.26 161.57 199.86 161.27 199.51 160.74 199.45 160.46 199.3 160.17 199.32 159.63 199.52 159.15 199.68 158.75 199.88 158.22 200.05 157.68 200.22 157.17 200.28 156.67 200.22 156.46 200.19 155.81 200.08 155.42 199.86 155.13 199.46 154.91 199.12 154.59 198.81 154.45 198.35 154.08 198.01 153.92 197.89 153.5 197.84 153.23 197.74 153.07 197.59 153.11 197.26 152.98 197.19 152.5 196.94 152.05 196.71 151.34 196.63 150.63 196.54 149.98 196.47 149.47 196.76 148.75 197.32 148.33 197.55 148.19 197.56 147.93 197.2 147.67 197.08 147.23 196.47 146.64 195.69 145.64 194.65 144.89 193.91 143.94 193.49 142.95 193.28 142.34 193.16 142.05 193.17 141.8 193.15 140.77 193.28 139.25 193.6 138.95 193.68 138.44 193.58 138.38 193.54 137.97 193.54 137.27 193.51 136.79 193.34 136.25 193.17 135.77 192.86 135.46 192.67 135.06 192.33 134.69 192.04 134.38 191.76 133.98 191.48 133.61 191.14 133.13 190.91 132.68 190.63 132.2 190.46 131.92 190.39 131.4 190.41 130.41 190.49 129.72 190.55 129.19 190.64 128.78 190.91 128.3 191.45 127.77 191.97 126.81 192.44 126.2 192.79 125.62 193.27 125.42 193.44 125 193.32 124.07 192.84 122.82 192.01 123.12 191.5 123.41 191.03 123.91 190.05 123.9 190.03 123.71 189.52 123.62 189.1 123.48 188.67 123.37 188.19 123.28 187.82 123.05 187.32 122.97 186.95 122.74 186.58 122.54 186.07 122.46 185.76 122.26 185.28 122.12 184.82 121.98 184.4 121.89 183.92 121.84 183.44 121.78 182.91 121.48 182.24 121.51 180.83 121.28 178.94 121.39 178.06 121.54 177.08 121.83 176.4 121.91 176.33 121.95 176.11 121.95 175.57 122.06 174.97 122.21 174.46 122.37 173.95 122.54 173.45 122.77 172.99 122.97 172.54 123.34 172.23 123.54 171.83 123.96 171.46 124.24 171.12 124.64 170.95 125.12 170.7 125.57 170.59 126.11 170.39 126.59 170.16 126.99 170.02 127.47 169.74 127.81 169.45 128.21 169.23 128.58 168.89 128.86 168.52 129.14 168.12 129.42 167.7 129.65 167.3 129.85 166.91 130.22 166.54 130.42 166.14 130.66 165.81 130.55 165.25 130.44 164.24 130.29 162.47 130.19 161.89 130.02 161.44 129.48 161.44 128.91 161.7 128.24 161.64 127.53 161.64 126.85 161.59 126.25 161.47 125.69 161.22 125.18 161.02 124.7 160.71 124.02 160.57 123.42 160.45 122.72 160.54 122.04 160.48 121.86 160.47 121.33 160.42 120.65 160.42 119.94 160.37 119.26 160.4 118.67 160.28 117.96 160.23 117.36 160.09 116.8 159.83 116.32 159.52 115.72 159.38 115.13 159.26 114.45 159.15 113.84 159.1 112.63 158.95 112.01 158.78 111.45 158.59 110.91 158.47 110.26 158.33 110.19 158.32 109.39 158.58 108.6 158.84 107.9 159.01 107.41 158.96 106.74 158.58 106.47 158.33 106.46 158.33 105.81 158.36 105.16 158.3 104.54 158.16 104 157.93 103.52 157.76 103.08 157.48 102.93 157.57 102.36 157.83 101.78 157.87 101.21 157.63 100.33 156.95 100.08 156.7 99.96 156.63 99.47 156.57 98.9 156.63 98.3 156.58 97 156.86 95.38 157.17 93.93 157.38 92.62 157.67 91.7 157.89 91.24 157.92 90.81 157.37 90.6 156.84 89.51 155.59 88.7 154.67 88.57 154.56 88.26 154.45 87.72 154.14 87.18 153.97 86.7 153.8 86.08 153.6 85.43 153.52 84.72 153.4 84.07 153.38 83.45 153.18 82.74 153.12 82.17 152.98 81.43 152.9 81.35 152.88 80.81 152.78 80.42 152.5 79.79 152.36 79.31 152.13 78.92 151.85 78.46 151.62 77.98 151.34 77.59 151.11 77.19 150.89 76.71 150.66 76.25 150.32 75.8 150.09 75.4 149.87 75.01 149.58 74.61 149.36 74.13 149.07 73.76 148.79 73.37 148.45 73.14 148.14 72.8 147.86 72.43 147.52 72.04 147.23 71.67 146.9 71.27 146.67 70.93 146.41 70.39 146.1 70 145.9 69.54 145.65 69.06 145.42 68.52 145.2 68.04 145.03 67.65 144.8 67.11 144.49 66.68 144.35 66.32 144.01 65.92 143.78 65.58 143.5 65.21 143.16 64.9 142.79 64.83 142.72 64.72 142.68 64.21 142.26 63.72 141.69 63.55 141.21 63.55 141.08 63.51 141.04 63.37 140.67 63.06 140.27 62.92 139.85 62.61 139.45 62.52 139.08 62.32 138.66 62.18 138.15 62.18 137.75 62.04 137.24 62.07 136.68 62.07 136.14 62.15 135.6 62.27 135.03 62.35 134.44 62.38 133.96 62.52 133.39 62.64 132.83 62.86 132.37 62.95 131.78 63.12 131.27 63.2 130.82 63.37 130.22 63.43 129.71 63.31 129.23 63 128.84 62.69 128.55 62.38 128.3 61.9 128.01 61.5 127.73 61.05 127.48 60.57 127.25 60.09 127.02 59.55 126.85 58.98 126.68 58.28 126.6 57.68 126.71 57.14 126.77 56.66 126.94 56.26 127.14 55.73 127.39 55.33 127.56 54.94 127.76 54.4 128 54.22 128.1 53.6 128.37 53.13 128.4 53.13 128.4 52.93 128.44 52.44 128.69 52.34 128.72 52.05 128.81 51.51 129.01 50.97 129.12 50.46 129.23 49.98 129.43 49.47 129.49 48.79 129.57 48.25 129.71 47.74 129.71 46.95 129.69 46.21 129.6 45.65 129.49 45.03 129.35 44.4 129.23 43.67 129.2 43.02 129.2 42.42 129.23 41.96 129.15 41 129.07 40.3 129.01 40.21 128.95 39.62 128.95 38.97 128.81 38.26 128.72 37.69 128.55 37.07 128.44 36.45 128.3 35.8 128.24 35.14 128.1 34.61 127.93 34.53 127.91 33.98 127.73 33.47 127.62 32.85 127.45 32.06 127.36 31.41 127.34 30.87 127.53 30.33 127.59 29.88 127.76 29.4 127.96 29 128.15 28.93 128.62 28.9 128.83 28.67 128.94 28.18 128.82 27.75 128.94 27.14 129.43 26.69 129.79 26.35 129.87 25.92 129.58 25.75 129.47 25.66 129.52 25.18 129.63 24.67 129.74 24.05 129.85 23.45 129.91 22.94 130.05 22.46 130.17 21.95 130.28 21.57 130.42 21.41 130.48 20.93 130.59 20.39 130.76 19.94 130.9 19.4 131.07 18.92 131.27 18.41 131.33 17.73 131.38 17.11 131.3 16.54 131.07 16.01 130.9 15.44 130.7 14.99 130.48 14.42 130.31 14 130.14 13.37 129.91 12.83 129.71 12.69 129.66 12.35 129.54 11.81 129.32 11.22 129.26 10.51 129.12 9.81 128.98 9.18 128.86 8.53 128.72 8.11 128.69 7.82 128.67 7.34 128.5 6.86 128.21 6.64 127.87 6.32 127.51 6.18 127.05 5.93 126.74 5.79 126.37 5.47 125.98 5.25 125.61 4.94 125.21 4.71 124.9 4.31 124.67 3.97 124.34 3.92 124.28 3.52 124.05 2.98 123.83 2.59 123.6 1.88 123.46 1.4 123.29 1 122.95 1 122.5 1.11 121.9 1.31 121.45 1.38 121.34 1.34 120.93 1.23 120.26 1.3 120.06 1.41 119.88 1.42 119.7 1.09 119.46 1 119.26 1.03 119.03 1.81 118.37 2.16 118.01 2.39 117.85 2.91 117.9 3.25 117.82 3.3 117.67 3.21 117.12 3.35 116.75 3.67 116.35 4.02 115.89 4.03 115.41 3.83 114.9 3.64 114.3 3.71 114.19 4 114.3 4.46 114.51 4.68 114.58 5.29 114.36 5.59 114.22 5.76 113.89 5.89 113.66 5.75 113.44 5.79 113.39 6.07 113.24 6.28 112.59 6.52 112.02 6.52 111.54 6.46 111 6.38 110.58 6.21 110.15 5.93 109.76 5.75 109.39 5.39 109.05 5.08 108.74 4.68 108.4 4.37 108.11 4.3 108.06 4.24 108.06 3.34 107.97 2.34 106.69 1.4 105.92 1.59 105.11 1.7 104.33 1.65 104.04 1.59 103.56 1.76 102.99 1.82 102.48 1.99 101.89 2.22 101.44 2.44 100.98 2.73 100.61 2.93 100.22 3.21 99.85 3.49 99.46 3.77 99.06 4 98.55 4.17 98.04 4.25 97.47 4.25 96.99 4.17 96.62 4.06 96.09 3.97 95.66 3.88 95.45 3.59 95.31 3.36 95.13 3.35 94.9 3.69 94.62 3.69 94.22 3.63 93.74 3.72 93.2 3.72 92.69 3.8 92.15 4.06 91.59 4.14 91.08 4.34 90.63 4.51 90.06 4.79 89.66 5.08 89.21 5.3 88.9 5.64 88.5 5.93 88.14 6.29 87.74 6.55 87.48 6.97 87.17 7.37 86.92 7.77 86.66 8.19 86.41 8.59 86.21 9.13 85.98 9.52 85.84 10.12 85.73 10.65 85.62 10.77 85.61 10.84 85.54 11.08 85.32 11.81 85.35 12.33 85.39 13.1 85.8 13.35 85.84 13.91 85.96 14.39 86.18 15.02 86.38 15.4 86.38 15.45 86.38 15.49 86.38 15.67 86.38 16.35 86.35 16.71 86.21 17.28 86.01 17.51 85.93 17.77 85.75 18.1 85.17 18.42 85.19 18.69 84.94 19 84.43 19.34 84.12 19.54 83.72 19.91 83.35 20.11 82.96 20.48 82.59 20.73 82.25 21.02 81.88 21.44 81.63 21.92 81.37 22.32 81.2 22.8 81.01 23.34 80.84 23.79 80.64 24.19 80.55 24.81 80.33 25.18 80.19 25.66 79.96 26.2 79.9 26.68 79.65 27.16 79.39 27.56 79.14 27.9 78.88 28.32 78.57 28.66 78.32 29.08 78.01 29.48 77.81 29.82 77.56 30.3 77.27 30.64 76.99 31.04 76.71 31.46 76.51 31.94 76.25 32.4 76.08 32.82 75.83 33.22 75.63 33.67 75.43 34.15 75.26 34.63 75.01 35.03 74.81 35.45 74.5 35.71 74.19 35.96 73.68 36.05 73.14 36.19 72.63 36.3 72.07 36.39 71.59 36.56 70.96 36.64 70.4 36.67 69.86 36.76 69.32 36.77 69.06 36.31 68.59 36.36 68.4 36.78 68.21 36.95 68.18 36.96 68.16 37.1 67.71 37.32 67.26 37.66 66.95 37.95 66.64 38.43 66.38 38.82 66.13 39.28 66.01 39.76 65.76 40.16 65.62 40.72 65.39 41.17 65.19 41.65 65.08 42.19 64.97 42.79 64.91 43.44 64.86 44.12 64.88 44.82 64.94 45.42 64.97 46.07 64.97 46.55 64.77 46.89 64.52 47.12 64.01 47.12 63.5 47.15 62.96 47.09 62.48 47.01 62 47.43 61.69 47.77 61.43 48.31 61.32 48.6 61.23 48.5 61.07 48.41 60.66 48.92 60.62 49.67 60.51 50.15 60.24 50.5 59.92 50.58 59.79 50.68 59.99 51.2 59.78 51.79 59.55 52.46 59.28 52.7 59.25 52.78 59.2 53.21 58.89 53.52 58.63 53.89 58.27 54.28 58.01 54.56 57.7 54.79 57.19 55.02 56.74 55.19 56.29 55.33 55.83 55.5 55.24 55.78 54.81 55.95 54.36 56.09 53.82 56.4 53.4 56.6 52.95 56.89 52.64 57.25 52.24 57.51 51.99 57.88 51.67 58.1 51.11 58.02 50.68 57.96 50.2 57.82 49.78 57.65 49.41 57.34 49.01 57.14 48.59 56.97 48.34 56.66 47.88 56.52 47.46 56.29 47 56.07 46.58 55.9 46.27 55.75 45.85 55.7 45.36 55.56 44.85 55.5 44.4 55.59 43.81 55.75 43.3 56.04 42.9 56.43 42.65 56.77 42.39 57.4 42.22 57.73 42.24 57.68 42.08 57.63 41.74 57.56 41.39 57.74 41.46 58.41 41.96 58.75 42.19 59.26 42.14 59.69 42.08 60.31 41.97 60.94 41.86 61.45 41.8 61.84 41.6 62.41 41.43 62.86 41.18 63.2 40.92 63.62 40.61 63.96 40.36 64.39 40.05 64.73 39.79 65.13 39.54 65.69 39.37 66.09 39.23 66.68 39.11 67.33 39.14 67.99 39.25 68.05 39.28 68.06 39.01 68.31 39.36 68.61 39.45 69.12 39.62 69.6 39.79 70.22 40.02 70.79 40.16 71.41 40.27 72.15 40.36 72.88 40.39 73.45 40.45 74.13 40.47 74.78 40.42 74.83 40.41 74.92 40.28 75.07 40.39 75.37 40.36 75.91 40.3 76.45 40.19 77.07 40.02 77.53 39.94 78.06 39.77 78.6 39.71 79.06 39.54 79.62 39.34 80.16 39.23 80.61 39.06 81.09 38.92 81.63 38.75 82.17 38.64 82.71 38.52 83.19 38.33 83.7 38.27 84.18 38.01 84.66 37.9 85.06 37.59 85.48 37.39 85.88 37.08 86.36 36.91 86.9 36.74 87.38 36.66 87.97 36.54 88.51 36.43 89.16 36.52 89.84 36.46 90.38 36.35 90.89 36.29 91.49 36.23 92.17 36.2 92.73 36.26 93.38 36.43 94.01 36.63 94.49 36.86 94.88 37.14 95.36 37.31 95.82 37.59 96.3 37.82 96.72 37.99 97.18 38.23 97.41 38.13 97.75 37.88 98.2 38.15 98.38 38.48 98.54 38.5 99.27 38.64 99.89 38.75 100.63 38.84 101.34 38.92 102.07 39.01 102.72 39.01 103.4 39.03 104.06 39.09 104.65 38.98 105.24 38.89 105.64 38.75 106.26 38.64 106.8 38.52 107.45 38.52 108.05 38.5 108.61 38.67 108.92 39.01 109.15 39.32 109.22 39.41 109.29 39.37 109.71 39.17 110.34 40.49 110.37 40.69 110.4 40.7 111.13 40.76 111.79 40.79 112.49 40.87 113.14 40.93 113.88 40.96 114.53 40.99 115.27 41.07 115.92 41.07 116.6 41.1 117.25 41.16 117.96 41.18 118.44 41.07 119.03 41.01 119.51 40.82 119.91 40.65 120.28 40.25 120.67 40.02 121.1 39.71 121.58 39.57 122.12 39.4 122.71 39.34 123.42 39.48 123.99 39.68 124.55 39.8 125.2 39.94 125.74 40.11 126.36 39.99 126.82 39.82 127.3 39.63 127.78 39.46 128.38 39.4 128.91 39.29 129.65 39.31 130.3 39.31 131.04 39.46 131.6 39.57 131.63 39.58 131.75 39.53 132.4 39.67 133.47 39.95 134.29 40.28 135.28 40.58 136.31 40.85 136.39 40.88 136.59 40.87 137.07 40.67 137.44 40.36 137.78 40.05 138 39.54 138.17 39.09 138.4 38.63 138.57 38.07 138.6 37.53 138.6 37.02 138.63 36.54 138.48 36.06 138.43 35.58 138.26 35.21 138.03 34.76 137.8 34.39 137.66 33.93 137.35 33.62 137.13 33.23 136.9 32.91 136.59 32.52 136.3 32.15 135.96 31.87 135.81 31.76 135.42 31.75 134.95 31.9 134.2 32.29 133.71 32.38 133.34 32.34 132.85 32.2 132.35 31.85 132.24 31.34 131.83 31.01 131.8 30.83 131.6 30.68 131.24 30.34 131.15 29.91 131.01 29.41 130.97 29.33 130.36 29.48 129.55 29.73 129.01 29.73 128 29.62 127.75 29.51 127.55 29.34 127.01 28.48 126.83 28.44 126.21 28.53 125.95 28.62 125.74 28.19 125.27 28.11 124.88 27.87 124.59 27.69 124.03 27.56 123.59 27.7 123.21 27.76 122.92 27.64 122.57 27.41 122.6 27.15 122.64 26.91 122.6 26.89 122.12 26.72 121.64 26.49 121.27 26.21 120.87 25.92 120.48 25.59 120.25 25.19 119.94 24.88 119.63 24.54 119.4 24.11 119.23 23.8 118.95 23.41 118.85 23.13 118.64 23.02 118.53 22.68 118.49 22.64 118.35 22.43 118.24 22.27 118.03 22.11 117.87 21.99 117.53 21.71 117.14 21.42 116.68 21.14 116.09 20.66 118.19 19.94 119.18 19.86 119.96 19.75 120.99 19.62 121.73 19.62 122.1 19.75 122.52 19.78 123.42 20.53 124.57 20.95 125.42 21 125.76 20.85 125.96 20.65 126.58 20.17 127.24 20.09 127.7 20.29 128 20.54 128.2 20.59 128.69 20.55 129.08 20.89 129.75 20.93 130.63 20.73 130.9 20.82 130.99 20.77 131.2 20.69 131.61 20.57 131.84 20.53 132.58 20.42 132.96 20.39 134.26 20.27 135.56 20.14 135.92 20.15 136.29 20.17 136.52 20.21 136.76 20.3 137.71 20.7 138.57 20.92 139.55 21.2 140.08 21.37 140.56 21.51 142.25 21.98 143.01 22.33 143.52 22.53 143.75 22.6 144.49 22.83 144.89 23.01 145.31 23.25 145.97 23.44 146.43 23.58 147.19 23.8 147.69 23.94 148.08 24.09 148.35 24.18 149.2 24.39 149.88 24.54 150.12 24.59 151.41 24.88 151.83 25.03 152.42 25.27 152.65 25.4 152.86 25.51 153.94 25.96 154.32 26.13 154.87 26.35 155.08 26.41 155.41 26.52 155.71 26.59 156.55 26.75 156.97 26.84 157.47 26.97 157.77 27.02 159 27.15 159.56 27.12 159.9 27.17 159.97 27.16 160.63 26.77 161.25 26.55 161.94 26.55 162.18 26.54 163.77 27.09 164.78 27.01 165.57 26.36 166.26 23.97 166.37 23.62 166.98 21.51 167.62 20.49 168.08 20.07 168.44 20.03 168.46 20 168.56 20.02 169.55 19.9 172.01 20.05 174.02 20.3 176.68 21.12 178.3 21.03 178.56 20.95 179.49 20.62 184.27 18.03 186.36 16.57 188.67 14.48 190.7 13.54 191.3 13.39 193.48 12.88 194.73 12.09 194.93 11.86 195 11.7 195.1 11.55 195.26 11.49 195.45 11.28 196.2 11.13 203.36 10.93 205.32 11 205.78 11.35 205.89 11.38 206.23 11.68 206.28 11.73 206.43 11.85 206.45 11.9 206.7 12.14 207.04 12.59 207.35 13.19 207.39 13.45 207.42 13.91 207.55 14.49 207.66 14.62 207.88 14.82 208.19 14.88 208.4 14.95 208.72 14.99 209.5 14.93 209.74 14.72 209.97 14.54 210.57 12.16 211.03 8.68 210.88 7.64 210.84 7.38 211.64 7.14 211.58 6.61 211.49 6.22 211.37 5.99 211.19 5.83 211 5.72 210.56 5.64 210.49 5.61 211.05 5.33 211.87 5.02 212.66 4.86 213.14 4.85 213.86 4.84 214.23 4.85 214.8 4.75 215.35 4.69 214.88 3.03 214.98 2.44 215.75 1.82 218.23 1.33 221.56 1 221.69 1.04 222.22 1.2 222.83 1.92 222.92 1.9 223.6 1.88 224.25 1.92 224.52 1.94 224.68 1.99 224.73 2.15 224.79 2.89 224.83 3.41 224.99 3.81 225.15 4.38 225.32 4.86 225.55 5.42 225.81 5.8 226.06 6.04 226.19 6.33 226.46 6.65 226.62 6.96 226.98 7.34 227.3 7.7 227.82 8.16 228.25 8.51 228.47 8.66 228.95 8.7 229.38 8.61 229.54 8.29 229.75 7.79 230.07 7.22 230.36 6.97 230.64 6.8 230.97 6.68 231.33 6.65 231.77 6.65 232.27 6.74 232.42 6.71 233 6.85 233.1 6.89 233.37 6.63 233.72 6.27 235.4 5.28 236.32 4.74 236.98 4.48 237.36 4.53 237.67 5.15 237.67 5.19 237.68 6.99 237.78 7.01 238.09 7.23 238.29 7.61 238.22 7.86 237.95 8.41 237.71 8.9 237.71 8.92 239 11.42 239.35 12.11 240.45 13.22 240.53 13.27 240.64 13.41 242.65 15.44 243.1 15.89 244.3 16.75 246.08 17.37 246.6 17.55 246.99 17.35 247.11 17.26 247.56 17.04 250.26 14.9 250.31 14.85 253.95 12.29 254.51 11.65 254.73 11.41 255.28 10.79 256.26 10.06 256.37 10.02 257.08 9.72 258.57 9.3 258.78 9.33 259.34 9.41 261.15 10.27 261.27 10.33 261.61 10.3 261.97 10.27 263.2 10.16 266.43 9.88 266.76 9.77 267.75 9.44 269.48 8.86 270.39 9.31 271.24 10.07 271.2 10.87 271.37 10.84 271.67 10.82 272.21 10.76 272.99 9.54 273.61 8.64 274.68 7.64 275.42 6.86 276.21 6.04 276.97 5.62 278.12 5.33 279.37 4.98 280.64 4.77 281.51 4.53 282.56 4.45 283.78 4.55 284.93 4.26 285.97 4.14 286.96 4.07 288.12 4.04 288.89 3.98 289.45 3.96 290.18 4.21 290.75 4.68 290.96 5.83 291.23 6.88 291.27 8.03 291.36 8.78 291.23 9.63 291.25 10.16 291.22 10.74 290.8 10.89 290.63 11.03 290.41 11.17 290.42 11.78 290.88 12.2 291.19 12.57 291.54 13.1 291.74 13.34 291.96 13.43 292.17 13.44 292.29 13.41 292.53 13.36 292.81 13.29 293.18 13.13 293.65 12.96 294.18 12.78 294.72 12.61 294.97 12.59 295.44 12.6 295.8 12.66 296.09 12.77 296.26 12.84 296.46 13.03 296.71 13.26 297.05 13.79 297.24 14.26 297.27 14.61 297.27 14.73 297.27 14.93 297.28 15.28 297.23 15.64 297.13 15.97 296.89 16.21 296.55 16.47 296.05 16.73 295.79 16.88 296.16 17.08 296.29 17.47 296.31 17.54 295.74 18.13 295.53 18.23 295.77 18.46 295.95 18.73 296.01 18.97 296.02 19.24 296.02 19.54 295.97 19.9 295.86 20.22 295.96 20.41 296.23 20.38 296.4 20.35 296.59 20.33 296.69 20.32 297.15 20.26 297.42 20.25 297.7 20.31 298.11 20.37 298.52 20.52 298.82 20.76 299.2 21.04 299.44 21.3 299.63 21.59 299.82 21.98 299.98 22.33 300.08 22.79 300.28 23.65 300.36 24.07 300.46 24.59 300.56 25.22 300.59 25.42 300.64 25.66 300.8 26.26 300.82 26.39 300.86 26.7 301.03 27.05 301.03 27.06 301.17 27.39 301.41 28.07 301.55 28.26 301.73 28.41 302.13 28.59 302.58 28.77 303.05 29.01 303.61 29.23 304.14 29.41 305.34 29.76 305.95 29.98 306.66 30.2 307.57 30.44 308.31 30.67 309.02 30.85 309.47 30.97 309.89 31.1 310.27 31.21 310.74 31.43 311.21 31.68 311.57 31.9 311.96 32.03 312.45 32.19 313.16 32.43 313.91 32.65 314.62 32.89 315.39 33.12 315.91 33.28 316.41 33.4 316.66 33.61 316.98 33.93 317.41 34.37 317.45 34.37 318.57 34.45 321.01 34.44 321.42 34.56 323.23 35.08 324.08 35.67 325.38 36.14 325.6 36.22 327.45 36.17 327.81 36.31 328.88 36.72 331.3 38.07 332.98 39 333.8 39.45 334.6 39.9 334.77 39.99 334.93 40.08 335.3 40.31 337.04 41.36 337.69 41.86 339.27 43.07 340.8 43.72 341.38 43.97 341.81 44.41 344.01 46.68 344.11 46.74 347.08 48.8 348.16 49.56 348.67 50.39 349.13 51.16 349.64 52.87 349.67 52.96 349.73 53.38 349.47 54.56 349.18 55.91 349.58 56.83 350.38 57.59 352.14 58.75 352.4 58.92 353.02 59.78 353.45 60.39 353.94 61.08 354.12 61.13 355.18 61.4 355.75 61.61 356.13 61.82 356.71 61.83 357.09 61.9 357.77 61.9 358.77 61.99 359.64 62.1 360.77 62.26 361.4 62.42 362.04 62.56 363.03 62.76 364.06 63.04 364.94 63.43 365.51 63.76 365.99 64.13 366.81 64.77 367.46 65.36 368.38 66.3 369.34 67.18 370.09 67.97 371.54 69.36 372.24 70.02 372.92 70.78 373.74 71.59 374.15 71.98 374.53 72.27 374.93 72.45 375.38 72.5 375.89 72.47 376.33 72.46 376.71 72.6 377.14 72.87 377.55 73.22 378.1 73.74 378.61 74.22 379.16 74.64 379.85 75.17 380.81 75.74 381.35 76.06 381.99 76.37 382.42 76.51 383.07 76.61 383.56 76.64 384.38 76.62 385.22 76.58 385.82 76.5 386.45 76.41 386.93 76.26 387.5 76.12 388.05 75.95 388.94 75.73 389.75 75.54 390.46 75.4 391.2 75.26 391.82 75.2 392.26 75.21 392.64 75.32 393.47 75.79 394.38 76.49 395.34 77.23 396.12 77.86 396.82 78.47 397.39 79.04 397.92 79.51 398.78 79.97 399.68 80.2 400.07 80.19 400.23 80.01 400.61 80.01 400.91 80 400.67 80.35 400.67 80.49 400.68 80.73 400.77 81.03 400.93 81.89 401.37 82.64 402 83.48 402.52 83.85 402.61 84.26 402.71 84.71 402.56 85.23 402.39 85.4 402.12 85.51 401.85 85.62 401.3 85.73 401.22 85.94 401.1 86.12 401.17 86.25 401.28 86.46 401.85 86.96 402.63 87.46 403.66 87.99 404.19 88.43 404.62 88.83 404.81 89.34 405.04 89.82 405.26 90.09 405.78 90.39 406.81 90.71 408.22 91.13 409.17 91.56 409.9 91.92 410.37 92.05 410.92 92.14 411.43 92.17 411.86 92.3 412.42 92.46 412.98 92.65 413.2 92.89 413.42 93.26 413.52 93.81 413.62 94.12 413.84 94.35 414.31 94.66 415.16 94.74 416.02 95 416.87 95.12 417.47 95.18 418.06 95.17 418.66 95.22 419.04 95.19 419.25 95.18 419.58 94.9 419.66 94.82 419.95 94.51 420.33 94.33 420.87 93.87 421.24 93.59 421.53 93.48 421.74 93.34 422.12 93.26 422.42 93.33 422.56 93.77 422.79 94.18 423.05 94.55 423.57 94.99 424.31 95.46 425.35 96.2 426.26 96.97 427.21 97.57 427.82 98.11 428.34 98.51 428.91 99.02 429.13 99.46 429.06 100.01 429.08 100.42 429.09 100.77 429.31 101.11 429.54 101.62 429.81 102.2 429.91 102.75 430.13 103.16 430.31 103.53 430.66 103.9 431.26 104.2 432.08 104.67 432.64 105.04 433.12 105.34 433.76 105.57 434.4 105.69 434.83 105.75 435.25 105.75 435.63 105.84 436.1 105.97 436.24 106.14 436.5 106.34 436.8 106.61 437.23 106.78 437.74 106.87 438.21 106.9 438.51 106.99 438.89 107.16 439.03 107.36 438.99 107.64 439 107.91 438.92 108.12 438.89 108.5 438.95 109.02 439.29 109.22 439.34 109.39 439.48 109.76 439.36 110.08 438.94 110.36 438.65 110.5 438.56 110.5 438.06 110.51 437.76 110.69 437.22 110.84 436.84 111.12 436.55 111.23 436.34 111.3 435.89 111.72 435.51 112.04 435.27 112.35 435.02 112.67 434.27 113.12 433.78 113.42 433.71 113.52 433.52 113.76 433.53 114.2 433.77 114.6 433.37 114.94 432.93 115.42 432.22 115.92 431.2 116.45 430.94 116.82 430.94 117.09 431.02 117.22 432.13 118.67 433.31 119.97 434.47 120.91 435.18 121.51 436.18 122.39 436.79 123.02 437.02 123.69 437.15 124.55 437.19 125.32 437.75 126.81 438.33 127.44 439.34 128.16 440.77 128.75 442.15 129.1 443.26 129.1 443.54 129.08 444.49 129.99 445.23 130.63 445.54 130.95 446.52 131.5 447.55 131.84 448.09 132.15 448.59 132.65 449.02 133.15 450.32 133.92 451.51 134.35 452.64 134.08 453.47 134.13 454.64 134.33 455.45 134.39 456.71 134.75 458.07 135.29 458.55 135.59 461.07 135.32 463.33 134.97 464.38 134.84 465.61 134.5 467.3 133.55 467.92 133.16 469.09 133.31 469.48 133.13 469.81 133 470.8 133.57 471.53 133.71 472.16 133.74 471.87 134.18 472.01 134.82 472.39 135.05 472.78 135.09 473.31 135.09 473.28 135.74 473.57 136.26 473.98 136.52 474.36 136.62 475.72 136.63 475.78 136.64 475.97 136.69 476.04 136.83 475.9 137.26 475.74 137.74 475.67 138.23 475.62 138.69 475.67 139.01 475.87 139.26 476.04 139.48 476.35 139.79 476.68 139.93 477.11 140.05 477.4 140.08 477.69 140.12 478.04 140.09 478.19 140.08 478.62 139.98 479.09 139.91 479.46 139.88 479.82 140.05 480.1 140.28 480.41 140.39 480.72 140.4 481.04 140.41 481.32 140.42 481.49 140.46 481.56 140.61 481.6 140.73 481.6 141.04 481.57 141.22 481.54 141.44 481.54 141.61 481.58 141.84 481.69 142.03 481.83 142.14 481.93 142.22 482.39 142.34 482.83 142.44 483.61 142.52 484.13 142.49 484.63 142.51 485.11 142.51 485.55 142.51 485.83 142.52 486.1 142.45 486.38 142.33 486.57 142.1 486.82 141.7 486.86 141.62 486.93 141.47 487.08 141.32 487.32 141.34 487.47 141.4 487.69 141.63 487.98 141.89 488.27 142.11 488.9 142.4 489.32 142.67 490.08 143.03 490.35 143.27 490.47 143.43 490.59 143.57 490.88 143.67 491.16 143.63 491.67 143.13 491.95 142.57 492.17 142.01 492.22 141.59 492.34 141.44 492.46 141.3 492.9 141.26 493.72 141.38 494.41 141.38 495.19 141.51 495.87 141.64 496.02 141.82 496.27 142.05 496.54 142.46 496.88 142.91 497.11 143.27 497.18 143.73 497.21 144.05 497.21 144.09 497.26 144.32 497.42 144.41 497.52 144.4 497.82 144.37 498.16 144.36 498.55 144.37 498.71 144.45 498.83 144.52 499.04 144.73 499.28 145.08 499.35 145.43 499.38 145.86 499.42 146.24 499.37 146.55 499.33 146.88 499.36 147.09 499.47 147.23 499.85 147.23 500.34 147.26 500.86 147.25 501.3 147.27 501.75 147.3 502.07 147.36 502.36 147.46 502.55 147.54 502.73 147.73 502.96 147.95 503.2 148.35 503.32 148.84 503.41 149.3 503.48 149.85 503.39 150.27 503.39 150.64 503.35 150.88 503.44 151.32 503.46 151.51 503.4 151.71 503.18 151.95 502.88 152.24 502.73 152.47 502.61 152.62 502.72 152.8 502.95 153.02 503.43 153.33 504.1 153.62 504.68 153.81 505.32 153.88 505.54 154.01 505.78 154.18 505.82 154.3 505.86 154.48 505.87 154.67 505.82 154.87 505.73 155.03 505.82 155.23 506.03 155.35 506.2 155.52 506.31 155.76 506.32 156.13 506.35 156.55 506.35 156.94 506.15 157.32 505.75 157.96 505.45 158.37 505.38 158.66 505.42 158.88 505.78 159.15 506.19 159.41 506.67 159.65 507.21 159.84 507.45 159.99 507.6 160.1 507.7 160.28 507.7 160.29 507.71 160.52 507.33 160.78 507 161.1 506.72 161.31 506.64 161.4 506.6 161.44 506.59 161.46 506.38 161.53 506.13 161.55 505.79 161.49 505.73 161.48 505.1 161.21 505.02 161.19 504.76 161.12 504.62 161.13 504.58 161.14 504.01 161.3 503.75 161.45 503.47 161.62 503.24 161.87 503.12 161.99 502.87 162.07 502.65 162.08 502.43 161.98 502.41 161.97 502.2 161.86 501.9 161.44 501.69 161.34 500.99 161.09 500.75 161.05 500.67 161.04 500.42 160.99 500.3 160.93 500.12 160.8 500.01 160.43 499.85 160.02 499.65 159.66 499.33 159.44 499.05 159.16 498.58 158.87 498.15 158.74 497.94 158.67 497.42 158.62 496.95 158.62 496.32 158.67 496.22 158.67 494.61 158.98 494.12 159.22 493.44 159.4 492.84 159.61 492.16 159.81 491.52 160.08 491.22 160.19 491.08 160.28 491.28 160.54 491.5 160.68 492.01 160.95 492.43 161.16 492.86 161.31 493.18 161.5 493.48 161.74 493.66 161.97 493.79 162.23 493.96 162.57 493.97 162.82 495.03 164.23 495.14 164.36 495.29 164.36 495.52 164.36 496.01 164.36 496.29 164.44 496.45 164.69 496.56 165.1 496.71 165.36 496.81 165.58 497.14 165.92 497.37 166.2 497.39 166.22 497.77 166.42 498.16 166.63 498.53 166.65 499.11 166.66 499.73 166.61 500.11 166.54 500.12 166.54 500.29 166.54 500.29 166.54 500.43 166.55 500.72 166.57 501.02 166.71 501.37 166.9 501.91 166.89 506.64 166.07 513 164.15 513.91 164.31 514.15 164.35 517.55 165.72 520.08 166.1 521.88 166.12 523.63 165.76 523.84 165.48 524.09 165.32 524.5 165.2 524.63 165.21 524.71 165.22 524.91 165.29 525.3 165.64 527.75 165.84 529.08 165.75 529.26 165.73 530.87 165.27 532.46 164.46 532.4 164.29 532.14 163.63 531.99 163.06 532 162.68 532 162.62 532.01 162.6 532.55 161.83 532.73 161.57 533 161.39 533.12 161.34 533.17 161.32 533.44 161.28 533.66 161.3 534.39 161.97 534.84 162.52 535.29 163.04 535.38 163.12 537.26 162.53 539.64 162.01 541.02 161.94 541.5 161.92 541.56 161.93 542.57 162.22 543.53 162.71 544.06 163.31 544.29 163.64 544.66 163.66 544.93 164.37 544.96 164.38 545.16 164.48 545.42 164.67 545.51 164.74 546.16 165.27 546.48 165.47 546.68 165.63 546.83 165.76 546.83 165.77 547 165.9 547.19 165.91 547.54 165.78 547.8 165.58 548.08 165.48 548.41 165.48 548.78 165.59 548.8 165.6 549.13 165.83 549.49 166.13 549.7 166.49 550 166.73 550.26 166.93 550.44 167.01 550.54 167.05 550.82 167.12 550.98 167.13 551.18 167.1 551.51 166.83 551.83 166.3 552.11 165.68 552.26 164.92 552.45 164.44 552.46 164.41 552.57 164.23 552.77 164.23 553.02 164.27 553.42 164.49 554.23 165.09 554.76 165.66 555.21 166.1 555.48 166.32 556.38 165.77 556.66 165.7 556.64 165.67 556.61 165.1 556.65 164.73 556.69 164.23 556.58 163.99 556.36 163.81 555.8 163.54 555.18 163.33 555.04 163.28 554.92 163.23 554.57 163.06 554.09 162.79 553.83 162.53 553.74 162.31 553.62 162.08 553.63 161.77 553.64 161.54 553.98 161.03 554.84 160.28 555.66 159.43 556.43 158.57 556.89 157.95 557.12 157.52 557.33 157.01 557.39 156.14 557.32 155.44 557.18 154.97 556.9 154.49 556.52 154.13 556.21 153.82 556.07 153.6 556.05 153.42 556.08 153.23 556.23 153.11 556.25 153.09 556.51 153.09 556.77 153.09 557.1 153.27 557.57 153.68 558.23 154.09 558.87 154.51 559.42 154.7 559.84 154.85 560.18 155.01 560.56 154.98 560.96 154.93 561.6 154.91 562.2 154.84 562.43 154.84 563.02 154.83 563.44 154.84 563.94 154.83 564.52 154.82 565.01 154.82 565.45 155.05 566.58 156.15 568.33 157.76 568.91 158.32 568.95 158.33 569.25 158.4 569.48 158.42 569.73 158.34 569.96 158.21 570.04 158.16 570.29 158.02 570.72 158 570.9 158.1 571.26 158.31 571.56 158.42 571.72 158.43 571.97 158.43 572.17 158.36 572.55 158.45 573.02 158.78 573.43 159.19 573.95 159.62 574.27 159.73 574.34 159.75 574.67 159.77 574.88 159.75 575.26 159.7 575.42 159.54 575.64 159.14 575.69 158.94 575.75 158.78 575.79 158.65 576.07 158.59 576.33 158.59 576.71 158.5 576.8 158.38 576.83 158.16 576.83 157.92 576.8 157.6 576.63 157.32 576.54 157.12 576.47 156.71 576.35 156.23 576.34 155.79 576.41 155.34 576.66 154.97 577.29 154.37 577.64 154.03 577.93 153.6 578 153.28 577.99 152.94 577.97 152.69 577.87 152.31 577.75 152.01 577.55 151.78 577.39 151.62 577.22 151.33 577.21 151.1 577.31 150.86 577.35 150.73 577.45 150.7 577.62 150.66 577.9 150.65 578.22 150.74 578.59 150.82 579.01 150.91 579.18 150.95 579.33 150.98 579.73 151.14 579.95 151.14 580.33 151.02 580.38 150.84 580.3 150.61 580.17 150.4 580.13 150.09 580.14 149.84 580.24 149.68 580.41 149.54 580.67 149.44 580.97 149.17 581.13 148.93 581.21 148.44 581.34 147.86 581.42 147.4 581.55 147.22 581.61 147.16 581.63 147.14 581.98 147.13 582.52 147.26 582.98 147.51 583.47 147.71 584.02 147.97 584.56 148.23 585.14 148.47 585.74 148.81 585.94 148.98 586.05 149.08 586.32 149.15 586.61 149.21 586.67 149.21 586.88 149.19 587 149.1 587.32 148.55 587.54 148.14 587.74 147.91 587.97 147.78 588.33 147.72 588.88 147.59 589.11 147.42 589.18 147.23 589.13 147.09 589.04 146.8 588.71 146.33 588.58 145.8 588.56 145.23 588.59 144.97 588.76 144.33 588.84 144.05 588.78 143.72 588.73 142.95 588.59 142.64 588.47 142.37 588.46 142.11 588.44 141.88 588.61 141.73 589.05 141.56 589.83 141.34 590.32 141.19 590.64 141.19 590.73 141.19 591.13 141.18 591.57 141.21 591.72 141.25 592.07 141.35 592.57 141.45 593.36 141.47 593.79 141.57 594.15 141.65 594.6 141.66 595.08 141.66 595.61 141.59 596.17 141.47 596.73 141.36 598.08 140.99 598.96 140.76 599.74 140.53 600.56 140.4 601.07 140.21 601.64 139.72 601.87 139.2 602.2 138.62 602.47 138 602.69 137.47 602.78 137.14 603.04 137.03 603.37 136.98 603.7 136.83 603.85 136.74 603.93 136.57 603.89 136.38 603.83 136.19 603.81 136 603.87 135.81 604.08 135.63 604.26 135.48 604.63 135.39 605.03 135.38 605.58 135.41 605.98 135.48 606.65 135.62 606.68 135.63 606.81 135.68 606.82 135.68 606.93 135.72 607.25 135.85 607.9 136.15 608.26 136.33 608.66 136.53 609.02 136.59 609.61 136.62 610.43 136.61 611.12 136.61 612.04 136.6 612.55 136.67 613.02 137.01 613.31 137.27 613.58 137.48 613.81 137.56 613.98 137.6 614.29 137.42 614.62 137.12 615.27 136.78 616 136.49 616.33 136.29 616.79 136.04 617.44 135.57 617.89 135.24 618.29 134.98 618.55 134.82 618.75 134.72 619 134.76 619.19 134.8 619.53 134.95 619.74 134.88 620.15 134.46 620.44 134.01 620.78 133.69 620.94 133.38 621.07 133.14 621.22 132.95 621.63 132.8 622.12 132.76 622.73 132.75 623.4 132.66 623.94 132.48 624.95 132.01 626.21 131.35 626.82 130.89 627.33 130.23 627.66 129.69 628.18 128.82 628.52 128.25 628.77 128.06 629.08 127.92 629.37 127.88 630.07 127.83 630.8 127.8 631.32 127.83 631.82 127.92 632.38 127.94 632.7 127.93 633.14 127.75 633.46 127.5 633.75 127.19 634.04 127.06 634.34 127.02 634.92 127.11 635.65 127.23 636.16 127.23 636.71 127.3 637.19 127.3 637.7 127.28 638.3 127.19 638.81 127.05 639.4 126.8 639.65 126.7 639.75 126.7 639.92 126.7 640.05 126.83 640.3 127.07 640.31 127.08 640.48 127.23 641.22 127.59 641.87 127.75 642.33 127.85 642.82 127.96 643.22 128.13 643.66 128.23 643.97 128.25 644.61 128.25 645.4 128.15 646.36 127.96 647.14 127.87 648.98 127.43 650.59 127.15 652.06 126.95 653.77 126.64 654.8 126.49 655.44 126.43 656 126.22 656.55 125.97 657.64 125.21 658.1 124.82 658.36 124.66 658.76 124.58 658.93 124.58 659.31 124.69 659.37 124.72 659.77 124.93 660.34 125.29 661.03 125.72 661.32 125.92 661.35 125.92 661.35 125.93 662.32 126.47 663.16 126.97 663.89 127.43 664.84 127.93 665.81 128.4 665.93 128.46 667.1 128.81 667.68 128.98 668.44 129.01 669.06 129 670.08 129 670.62 129.14 671.21 129.26 672.3 129.31 674.59 129.65 676.19 129.91 677.17 129.97 677.72 129.96 678.11 129.9 678.62 129.58 678.98 129.28 679.45 129.01 679.85 128.71 680.47 128.26 681.71 127.24 682.17 126.79 683.11 125.94 683.8 125.28 684.14 124.86 684.65 124.12 684.64 123.49 684.55 123 683.95 122.13 683.47 121.61 683.12 121.05 682.9 120.39 683.24 119.37 683.41 118.57 683.79 117.83 683.96 117.52 684.56 117.1 685.41 116.57 686.87 115.62 687.85 114.88 688.49 114.49 688.88 114.39 689.78 114.38 690.73 114.38 692.19 114.41 693.7 114.44 694.99 114.43 696.62 114.32 699.93 114.17 701.26 114.16 701.51 114.16 702.47 114.16 703.28 114.16 703.67 114.26 703.93 115.03 704.64 118.59 705.12 120.54 705.47 121.7 705.73 122.6 706.21 123.34 706.46 123.61 706.55 123.72 707.11 123.89 708.06 124.1 709.69 124.37 710.85 124.54 711.89 124.79 714.42 125.2 715.62 125.33 716.1 125.43 716.31 125.47 716.87 125.58 717.39 125.78 717.91 126.38 718.34 126.52 718.98 126.79 719.88 127.11 719.91 127.12 720.87 127.73 722.68 128.36 724.57 128.88 726.63 129.4 728.31 129.78 729.68 130.02 731.62 130.65 733.16 131.06 734.24 131.45 735.12 131.68 735.14 131.69 736.26 132.18 736.99 132.73 737.23 133.02 737.46 133.29 737.85 133.71 738.45 134.03 739.65 134.06 741.24 134.27 743.56 134.61 745.19 134.93 746.65 134.99 747.72 135.17 749.66 135.62 751.03 135.93 752.4 136 753.13 136.04 753.78 135.44 754.89 134.5 755.83 133.73 756.99 132.75 758.06 131.95 759.14 131.28 760.13 130.93 761.37 130.55 763.77 130.3 764.95 130.28 765.47 130.61 765.88 130.93 766.35 131.3 767.1 131.86 767.75 132.38 768.36 133.08 769.1 133.91 769.8 134.89 770.31 135.87 771.11 137.32 771.62 138.67 771.99 139.65 772.33 140.29 772.51 140.63 772.97 141.14 773.14 141.25 773.58 141.56 774.32 142.12 774.7 142.59 775.21 143.66 775.63 145.15 775.97 145.79 776.05 145.94 776.28 146.5 776.66 147.06 777.21 147.48 777.68 147.48 778.19 147.53 779.03 147.53 779.78 147.81 780.66 148.13 781.64 148.51 782.46 148.78 783.05 149.02 783.79 149.23 784.66 149.44 785.54 149.69 786.73 150.07 788.23 150.25 789.24 150.67 790.29 151.16 791.38 151.82 792.36 152.52 793.34 153.11 794.05 153.56 794.52 153.85 795.43 154.62 795.99 155.53 796.34 156.33 796.62 157.28 796.9 158.29 797.15 159.97 797.22 161.82 797.29 162.76 797.64 163.67 797.99 164.65 798.37 165.39 798.69 165.84 798.76 166.37 799 167.2 799 167.66 798.79 168.15 798.27 168.5 796.06 169.34 795.01 170.04 794.35 170.63 793.82 171.12 793.55 171.96 793.34 172.83 793.34 173.53 793.55 174.09 793.79 174.62 794 175.21 794.1 175.8 793.86 178.08 793.44 179.34 793.02 180.31 792.6 181.33 792.11 182.41 791.76 183.15 791.59 183.64 791.62 184.2 791.48 184.65 790.29 186.4 789.24 187.87 788.65 189.2 788.34 189.72 788.3 190.35 788.13 190.77 788.06 191.57 787.99 192.94 787.81 193.71 787.53 194.26 784.73 197.31 783.44 198.81 783.09 199.58 782.88 200.17 782.88 201.08 783.54 205.8 783.72 207.34 783.89 207.9 784.07 208.6 783.93 209.16 783.37 210.52 783.33 211.19 783.26 211.99 783.23 212.72 783.23 213.49 783.06 213.91 782.67 214.75 781.2 218.46 780.26 220.84 777.95 225.35 775.99 228.7 775.71 229.16 774.56 229.96 773.19 230.94 772.04 231.95 771.69 232.55 771.41 233.42 771.1 235.41 771.06 237.65 771.04 238.15 770.99 239.51 770.99 241.32 771.03 242.62 771.03 243.25 770.86 243.9 770.85 243.95 770.57 244.57 770.15 245.03 769.52 245.59 768.86 246.11 768.09 246.43 766.94 246.64 765.92 246.92 765.08 247.02 764.45 247.3 763.48 247.55 762.34 247.56 761.39 247.76 760.64 248.04 760.03 248.21 759.26 248.45 758.91 248.68 758.59 248.72 758.37 248.71 757.77 248.48 756.78 248.23 756.06 248.05 755.49 247.9 754.29 247.64 753.45 247.51 752.85 247.43 752.16 247.43 751.74 247.43 751.12 247.43 750.76 247.52 750.29 247.66 749.94 247.81 749.58 247.96 749.14 248.31 748.74 248.76 748.32 249.22 747.98 249.6 747.72 249.78 747.36 249.96 747.03 250.19 746.68 250.5 746.54 250.86 746.32 251.3 746.1 251.74 745.83 252.1 745.5 252.32 745.16 252.42 744.8 252.51 744.27 252.6 743.99 252.63 743.69 252.78 743.19 253.17 742.98 253.34 742.49 253.64 742.03 253.89 741.65 254.12 741.48 254.22 741.23 254.36 741.09 254.51 741.05 254.63 741 254.84 741.05 255.1 741.53 255.52 741.98 255.95 742.22 256.49 742.39 256.8 742.64 257.25 742.86 257.73 742.93 258 742.93 258.21 742.8 258.4 742.06 258.59 741 258.87 740.42 259.13 740.19 259.27 740.11 259.43 739.99 259.57 739.84 260.08 739.75 260.39 739.64 260.77 739.52 261.27 739.55 261.54 739.61 261.81 739.74 261.96 740.03 262.05 740.5 262.02 740.74 261.97 741.05 262.03 741.47 262.32 742.41 262.75 743.52 263.2 744.18 263.44 744.63 263.62 745 263.98 745.12 264.18 745.36 264.54 745.47 264.88 745.47 265.29 745.23 265.79 745.02 266.19 744.91 266.41 744.85 266.6 744.89 266.87 745.04 267.08 745.15 267.19 745.16 267.43 745.11 267.58 744.86 267.67 744.51 267.71 743.98 267.9 743.66 268.03 743.4 268.23 743.06 268.54 742.68 269.03 742.57 269.13 742.31 269.13 741.91 269.15 740.9 269 739.84 268.97 739.22 268.93 738.88 268.9 738.39 269.02 738.21 269.15 737.7 269.29 737.32 269.32 736.83 269.29 736.44 269.11 735.79 268.9 735.3 268.86 734.92 268.81 734.52 268.83 733.55 268.99 733.14 269 732.65 268.85 732.06 268.7 731.52 268.61 731.17 268.62 730.74 268.76 730.39 268.88 730.12 268.9 729.76 268.87 729.61 268.69 729.15 268.28 728.77 268.06 728.37 268.01 727.23 268.01 726.57 268.06 726.03 268.06 725.72 267.93 725.3 267.87 724.65 267.61 724.1 267.31 723.72 267.16 723.41 267.09 723.06 267.09 722.84 267.12 722.41 267.39 721.74 267.82 721.03 268.04 720.25 268.26 718.87 268.56 717.89 268.7 717.25 268.81 716.94 268.88 716.62 269.17 716.37 269.42 716.06 269.56 715.48 269.59 714.91 269.53 714.68 269.58 714.6 269.66 714.57 269.69 714.6 269.87 714.92 270.47 715.45 271.08 715.81 271.47 716.03 271.71 716.25 271.97 716.34 272.22 716.38 272.58 716.13 273.55 716.04 274.15 716.04 274.19 716.06 274.72 716.1 275.01 716.21 275.23 716.37 275.4 716.9 275.62 717.55 275.83 718.35 275.98 719.06 276.11 719.81 276.25 720.08 276.34 720.06 276.43 719.86 276.85 719.59 277.17 719.1 277.83 719.09 278.01 719.12 278.3 719.46 279.47 719.53 280.91 719.7 281.88 719.68 282.45 719.63 283.62 719.68 283.86 719.75 284.2 720.48 285.29 720.66 285.54 721.27 286.36 721.44 286.59 722.19 287.59 722.39 287.93 722.77 288.57 722.92 288.87 722.99 289.19 722.98 289.68 722.69 290.74 722.55 291.45 722.49 291.7 722.48 292.12 722.43 292.77 722.26 293.35 721.81 293.95 720.82 294.99 720.15 295.56 719.86 295.7 719.64 295.75 719.41 295.78 719.14 295.85 718.99 295.88 718.83 296 718.63 296.2 718.25 296.79 718.02 296.91 717.74 296.91 717.42 296.88 716.8 296.69 715.93 296.31 715.53 296.18 714.95 296.15 714.7 296.15 714.28 296.35 713.63 296.8 712.92 297.38 712.85 297.5 712.65 297.81 712.4 298.39 712.39 298.63 712.37 299.11 712.26 299.91 712.16 300.77 711.98 301.57 711.93 301.79 711.95 302.08 712.04 302.34 712.36 302.94 712.37 302.95 712.59 303.33 712.68 303.52 712.57 303.76 712.16 304.34 711.13 305.38 710.03 306.48 709.67 306.86 709.2 307.18 708.73 307.36 708.37 307.5 707.91 307.56 707.14 307.74 706.59 307.93 705.67 308.26 705.27 308.52 705.08 308.67 704.97 308.88 704.84 309.39 704.83 309.77 704.61 310.18 704.34 310.54 704.31 310.92 704.32 311.09 704.35 311.49 704.37 311.84 704.48 312.08 704.86 312.54 705.59 313.13 706.42 313.73 706.59 313.86 706.79 314 707.02 314.19 707.08 314.34 707.08 314.59 706.93 314.83 706.45 315.27 705.6 315.77 705.07 315.93 704.79 315.96 704.33 315.97 703.81 315.86 703.37 315.56 702.97 315.35 702.72 314.93 702.33 314.63 701.75 314.41 701.06 314.11 700.39 313.92 699.49 313.83 698.09 313.77 696.99 313.64 695.47 313.44 694.05 313.28 692.57 313.16 691.45 313.27 690.69 313.43 690.09 313.54 689.75 313.55 689.51 313.46 689.38 313.3 689.11 313.01 688.78 312.86 688.22 312.68 687.42 312.49 686.57 312.36 686.06 312.27 685.48 312.14 685.05 312.16 684.54 312.22 684.05 312.33 683.49 312.37 682.86 312.38 682.51 312.18 681.99 311.85 681.31 311.39 680.82 310.94 680.51 310.72 680.17 310.55 679.51 310.58 678.94 310.71 678.43 310.92 678.07 311.06 677.85 311.06 677.42 310.9 677.22 310.76 677.18 310.75 676.94 310.7 676.83 310.7 676.8 310.79 676.8 311.04 676.91 311.56 676.98 312.14 677.07 312.84 677.2 313.35 677.13 313.79 676.91 314.15 676.57 314.44 676.14 314.69 675.88 314.77 675.13 315.01 674.53 315.18 673.88 315.26 673.14 315.33 672.71 315.37 671.87 315.37 671.33 315.37 670.84 315.3 670.08 315.2 669.14 314.87 668.14 314.43 667.19 313.93 666.28 313.5 664.74 312.67 664.21 312.37 663.74 312.1 663.34 312.1 662.96 312.18 662.69 312.39 662.15 312.67 661.95 312.8 661.91 312.78 661.68 312.77 661.36 312.94 661 312.98 660.67 313.05 660.28 313.11 659.97 313.31 659.69 313.49 659.26 313.63 658.78 313.76 658.55 313.91 658.1 313.99 657.42 314.24 657 314.43 656.58 314.64 655.99 314.82 655.37 314.86 655.06 314.88 654.64 315.06 654.42 315.11 654.21 315.11 654.01 315.21 653.69 315.38 653.41 315.5 653.24 315.56 653.01 315.78 652.86 316.12 652.8 316.34 652.66 317.05 652.3 317.87 651.84 318.51 651.11 319.19 651.11 319.55 651.68 320.13 652.08 320.7 652.37 321.11 652.59 321.38 652.97 321.45 653.36 321.77 653.7 322.16 654.05 322.38 654.11 322.7 654.07 322.99 654.35 323.28 654.56 323.64 654.72 324.15 655.19 324.7 655.61 325.13 655.87 325.63 656.37 326.17 656.7 326.6 656.8 327.11 656.88 327.49 657.26 327.97 657.68 328.43 657.71 328.7 657.59 329.16 657.49 329.44 657.67 329.54 658.03 329.44 658.37 329.28 658.44 329.47 658.36 329.84 658.25 330.75 658.45 331.46 658.64 332 658.73 332.49 658.95 332.82 659.27 333.06 659.31 333.49 659.65 334.05 659.68 334.29 659.86 334.7 660.55 334.95 661.13 335.13 661.48 335.37 661.76 335.68 661.74 336.11 661.76 336.5 661.91 336.83 661.99 337.21 662 337.63 662.26 338.11 662.53 339.09 662.69 339.79 663.13 340.17 663.71 340.29 663.95 340.03 664.22 339.99 664.6 340.23 665.01 340.24 665.42 340.18 665.82 340.52 666.18 340.9 666.47 341.32 666.95 341.64 667.35 341.67 667.69 341.42 667.89 341.24 668.01 341.19 668.03 341.92 667.66 342.08 667.3 342.15 666.63 342.01 666.03 341.85 665.77 341.83 665.61 342.02 665.3 342.04 665.08 342.14 665.13 342.39 665.46 342.58 665.24 342.84 664.71 343.15 664.32 343.86 664.17 344.53 663.99 344.93 663.67 345.65 663.4 346.28 663.3 346.75 663.41 347.51 663.62 348.22 663.64 348.72 664.3 349.3 664.87 349.9 665.57 350.34 666.39 350.55 667.2 350.63 667.93 350.84 668.7 350.82 669.08 350.85 669.25 351.09 669.51 351.59 669.77 351.76 670.11 351.87 670.63 352.39 671.18 353.02 671.63 353.53 671.73 353.89 671.7 354.39 671.26 354.79 671.01 355.05 670.98 355.21 671.27 355.42 671.05 355.59 670.58 355.42 670.07 355.2 669.16 355.22 667.88 355.24 667.05 355.24 666.24 355.36 665.59 355.35 665.12 355.37 664.81 355.57 664.64 355.96 664.06 356.03 663.6 356.12 663.18 356.34 662.91 356.54 662.51 356.53 662.15 356.44 662.01 356.29 661.62 356.42 661.24 356.39 660.53 356.41 659.92 356.49 659.48 356.15 659.31 356.06 658.9 355.94 658.3 355.75 657.55 355.65 657.04 355.59 656.75 355.63 656.34 355.85 656.03 355.97 655.53 355.56 655.24 355.35 654.76 355.31 653.94 355.26 653.28 355.27 652.81 355.29 652.87 355.52 652.84 355.78 652.72 356.4 652.54 356.88 652.18 357.39 651.55 358.08 651.33 358.36 651.31 358.56 651.28 358.94 651.2 359.31 651.01 359.68 650.81 360.01 650.9 360.07 651.37 360.33 651.9 360.48 652.35 360.68 652.93 360.75 653.21 360.92 653.46 361.18 653.67 361.75 653.73 362.7 653.78 363.33 653.95 363.71 654.17 363.85 654.54 363.96 654.85 364.09 655.03 364.42 655.34 364.84 655.62 365.15 655.95 365.6 656.29 365.93 656.5 366.32 656.47 366.73 656.15 367.4 656.02 367.91 655.63 368.51 655.42 369.05 655.26 369.59 655.14 370.37 655.07 370.95 654.98 371.8 655 372.52 654.93 373.19 654.9 373.51 654.91 373.73 655.05 374.07 655.25 374.54 655.37 374.69 655.51 374.87 655.42 375.13 655.28 375.27 655.35 375.39 655.54 375.58 655.7 375.78 655.74 375.97 655.57 376.19 655.33 376.5 655.33 376.65 655.42 376.93 655.58 377.11 655.86 377.27 656 377.4 656.09 377.51 656.14 377.87 656.3 378.23 656.34 378.52 656.25 378.79 657.6 380.36 659.42 381.06 660.12 381.93 661.05 383.09 662.07 383.82 662.63 384.21 664.2 384.78 665.58 386.46 666.1 386.78 667.06 387.29 667.97 387.79 668.33 387.94 669.03 388.3 669.93 388.75 670.91 389.07 671.81 389.24 672.53 389.34 673.11 389.51 673.34 389.56 673.92 389.58 674.48 389.54 675.33 389.42 675.73 389.38 676.14 389.37 676.75 389.51 677.07 389.51 677.69 389.37 678.2 389.17 678.55 389.05 678.92 389.03 679.24 389.01 679.7 389.1 680.21 389.22 680.75 389.25 681.3 389.23 682.51 389.13 683.34 389.11 683.89 388.93 684.4 388.93 685.37 388.96 686 389.02 686.81 389.17 687.55 389.44 688.27 389.76 689.29 390.17 689.85 390.34 691.38 390.92 692.42 391.16 693.1 391.32 693.58 391.31 694.46 391.29 695.32 391.25 695.64 391.09 696.24 390.76 696.72 390.62 697.21 390.48 697.65 390.48 698.11 390.5 699.02 390.65 700.57 391.05 702.01 391.44 703.14 391.76 704.41 391.99 704.92 392.11 705.5 392.24 706.06 392.4 706.45 392.57 706.78 392.86 706.94 393.17 706.86 394.39 706.68 395.6 706.52 396.67 706.16 397.9 705.72 399.55 704.99 400.76 704.58 401.32 704.69 401.5 704.76 402.67 704.55 403.44 704.32 404.03 704.07 404.66 702.82 406.8 702.69 407.34 702.47 407.56 702.29 407.74 702.01 408.02 700.28 411 700.25 411.15 700.15 411.61 699.71 412.16 699.71 412.17 700.04 412.81 700.36 413.26 700.62 413.59 700.69 414.17 700.69 414.58 700.53 415.03 700.3 415.46 700.03 415.94 699.94 416.02 699.73 416.2 699.09 416.51 698.63 416.67 698.51 416.72 698.16 416.84 698.05 416.88 697.88 418.88 697.95 419.38 697.98 419.57 698 419.73 698.08 420.27 698.37 420.25 698.93 420.24 699.37 420.19 699.58 420.23 699.72 420.37 699.72 420.77 699.66 421.25 699.47 421.66 699.33 422.21 699.45 422.49 700.03 422.87 700.43 423.08 700.69 423.07 701.12 422.85 701.55 422.63 701.87 422.63 702.24 422.74 702.73 423.01 703.29 423.32 703.58 423.63 704.01 424.2 704.38 424.66 704.67 424.94 704.89 425.28 705.13 425.44 705.35 425.53 705.73 425.71 706.29 426.11 706.69 426.54 707.19 427.15 707.72 427.93 708.38 428.98 709.02 429.94 709.5 430.5 709.97 431.16 710.14 431.49 710.24 431.82 710.25 432.02 710.66 432.1 711.34 432.21 711.77 432.55 712.29 433.44 712.91 434.34 713.65 435.24 714.34 436.08 715.04 436.93 715.51 437.5 716 438.32 716.37 439.07 716.65 439.78 717 440.19 717.36 440.64 717.75 440.87 718.42 441 718.74 441.18 719.19 441.61 719.53 441.99 719.89 442.04 720.24 441.89 720.79 441.68 721.2 441.63 721.57 441.77 721.79 442.11 721.98 442.62 722.26 443.19 722.47 443.59 722.66 444.02 723.06 444.59 723.71 445.21 723.89 445.44 723.82 445.74 723.39 446.23 722.45 447.28 721.54 448.25 720.96 448.8 720.33 449.51 719.86 449.97 719.45 450.34 719.36 450.5 719.41 450.68 719.54 451.28 719.72 452.04 719.05 456.13 718.62 457.18 718.24 457.78 717.79 458.5 715.62 459.67 715.41 459.78 714.63 459.97 714.06 460.12 712 459.98 711.63 459.95 711.15 459.96 710.92 460.34 710.59 460.6 710.05 461 709.36 461.39 708.92 461.57 708.44 461.77 707.98 461.95 707.62 462.14 707.43 462.41 707.3 462.92 707.2 463.41 707.05 463.88 706.91 464.17 706.32 465.26 706.06 465.7 705.7 466.29 705.41 466.69 704.83 466.97 704.51 467.03 703.66 467.12 703.4 467.11 703.04 467.11 702.47 467.03 702.07 466.92 701.52 466.69 701.01 466.41 700.51 466.23 700.22 465.91 700.03 465.39 699.97 465.2 699.12 465.61 699.05 465.66 698.89 465.77 698.21 466.27 697.57 466.72 694.84 470.32 694.18 470.67 694.03 470.75 693.28 470.81 692.51 470.61 689.73 467.63 688.78 467.17 688.54 467.06 688.49 467.06 688.01 467.11 687.5 467.16 686.15 467.5 685.96 467.55 685.21 467.74 685.21 467.74 685.01 468.21 684.69 468.6 684.15 468.98 683.73 469.25 683.29 469.56 682.94 469.87 682.48 470.23 682.12 470.58 681.76 470.95 681.36 471.27 681.03 471.53 680.64 471.7 680.26 471.71 679.87 471.78 679.25 471.82 678.18 471.85 677.61 471.86 677.02 471.81 676.53 471.82 675.35 472.86 675.1 473.07 674.61 473.91 674.48 474.13 674.8 474.43 675.09 474.87 675.19 475.22 675.32 475.61 675.37 476.31 675.31 476.9 675.21 477.32 674.83 477.83 674.68 477.98 674.48 478.12 673.6 479.7 673.33 481.34 672.85 482.51 671.95 482.89 671.57 482.78 670.01 481.77 669.09 481.16 668.75 481.13 668.29 481.1 667.22 481.32 667.2 481.33 666.95 481.51 664.75 482.99 661.57 483.27 660.42 485.15 659.88 485.46 659.68 485.41 659.61 485.49 659.47 485.59 659.16 485.67 658.84 485.89 658.55 485.97 658.41 486 658.16 485.9 657.8 485.55 657.48 485.13 657.23 484.82 657.1 484.44 654.46 483.37 653.93 483.15 653.51 482.98 653.45 482.92 652.25 481.52 652.01 481.25 650.79 480.4 650.69 480.24 650.49 480.11 649.72 479.52 648.75 478.71 648.13 478.22 647.4 477.73 647.11 477.54 645.49 477.05 643.98 475.93 643.84 475.82 643.73 475.75 643.62 475.75 642.92 475.69 642.62 475.57 642.4 475.25 642.29 474.98 642.18 474.43 642.05 474 641.97 473.64 641.61 473.19 641.45 473.08 639.9 471.95 639.44 471.08 639.31 470.4 639.32 469.07 639.01 468.26 638.79 467.28 638.6 466.51 638.7 465.96 638.85 465.51 638.72 465.24 638.32 464.87 637.83 464.19 637.59 463.91 637.44 463.25 637.35 462.78 637.38 462.41 637.54 462.03 638.17 461.47 639 460.78 639.51 460.2 639.64 459.87 639.73 459.63 639.77 459.24 639.71 459.02 639.35 457.66 639.34 457.63 639.28 457.48 638.81 456.84 638.37 456.21 637.93 455.67 637.57 455.27 637.15 454.89 636.66 454.62 636.16 454.23 635.88 453.89 635.72 453.59 635.76 453.27 635.98 452.66 636.15 452.01 636.37 451.64 636.59 451.04 636.89 450.28 636.95 449.99 636.31 449.46 635.94 449.46 635.71 449.7 635.3 450.31 634.91 450.84 634.24 451.59 633.59 452.15 633.06 452.57 632.69 452.81 632.31 453 631.91 453.18 631.14 453.3 630.34 453.34 629.29 453.33 628.46 453.27 627.98 453.49 626.98 454.23 626.7 454.72 624.73 458.12 624.05 458.53 622.71 458.69 622.38 458.93 621.83 459.24 621.41 459.33 621.19 459.32 621.01 459.19 620.66 458.91 620.36 458.64 620.1 458.42 619.85 458.38 619.45 458.32 619.42 458.29 617.28 457.99 616.32 457.99 616.29 457.99 615.85 457.99 615.82 457.99 615.21 458.18 615.02 458.25 614.99 458.25 614.41 458.44 613.93 458.59 612.14 459.79 611.58 460.31 610.82 461.01 609.77 461.98 609.17 461.99 608.46 461.5 608.44 461.49 608.34 461.46 608.21 461.44 607.33 461.25 606.42 461.34 605.47 462.09 604.91 462.53 602.94 463.43 602.85 463.66 602.72 464.25 602.65 464.72 602.53 465.17 602.59 465.47 602.51 465.73 602.2 466.06 601.55 466.43 601.58 466.87 602.2 467.42 602.28 467.49 602.73 467.9 602.41 468.09 602.15 468.24 601.98 468.21 601.96 468.14 601.58 467.99 601.59 467.9 601.19 467.58 601.07 467.02 600.95 466.75 600.94 466.74 600.79 466.81 600.86 466.9 600.84 466.91 600.85 467.04 600.84 467.17 600.79 467.33 600.75 467.4 600.67 467.5 600.61 467.53 600.55 467.59 600.5 467.65 600.47 467.68 600.44 467.76 600.41 467.84 600.37 467.91 600.31 467.95 600.23 467.99 600.1 468.02 599.96 468.04 599.76 468.06 599.63 468.09 599.55 468.11 599.48 468.14 599.43 468.18 599.41 468.21 599.37 468.28 599.33 468.33 599.24 468.42 599.18 468.45 599.11 468.48 599.07 468.5 599.04 468.52 598.99 468.58 598.93 468.64 598.85 468.71 598.79 468.76 598.72 468.81 598.59 468.89 598.49 468.94 598.36 469 598.21 469.03 598.13 469.06 598.05 469.1 598 469.14 597.94 469.2 597.84 469.26 597.76 469.31 597.68 469.34 597.6 469.37 597.56 469.39 597.53 469.41 597.48 469.44 597.46 469.47 597.46 469.46 597.45 469.46 597.45 469.45 597.45 469.44 597.44 469.43 597.43 469.42 597.42 469.42 597.4 469.45 597.31 469.48 597.31 469.51 597.33 469.57 597.35 469.63 597.38 469.68 597.44 469.77 597.48 469.85 597.5 469.89 597.55 469.99 597.56 470.06 597.55 470.11 597.54 470.2 597.5 470.31 597.48 470.4 597.48 470.49 597.49 470.57 597.5 470.66 597.51 470.75 597.5 470.82 597.46 470.91 597.42 470.99 597.39 471.04 597.33 471.11 597.29 471.16 597.23 471.2 597.17 471.23 597.09 471.27 597.03 471.28 596.96 471.3 596.87 471.34 596.8 471.36 596.74 471.4 596.65 471.47 596.61 471.49 596.49 471.51 596.35 471.54 596.27 471.55 596.16 471.56 596 471.59 595.9 471.62 595.85 471.64 595.81 471.66 595.78 471.69 595.75 471.72 595.72 471.76 595.71 471.84 595.71 471.92 595.73 471.99 595.74 472.04 595.75 472.08 595.77 472.14 595.81 472.2 595.84 472.24 595.88 472.3 595.91 472.35 595.97 472.4 596 472.42 596.09 472.49 596.09 472.5 596.04 472.56 595.99 472.62 595.94 472.7 595.89 472.76 595.84 472.82 595.78 472.89 595.74 472.96 595.7 473.02 595.67 473.06 595.63 473.08 595.54 473.11 595.4 473.15 595.33 473.17 595.22 473.2 595.11 473.22 595.05 473.22 594.98 473.21 594.9 473.21 594.81 473.23 594.73 473.22 594.66 473.21 594.56 473.19 594.46 473.17 594.37 473.16 594.33 473.14 594.19 473.09 594.06 473.05 594.05 473.04 593.87 473.03 593.77 473.02 593.72 473.02 593.61 472.98 593.58 472.99 593.57 473.02 593.53 473.07 593.51 473.12 593.47 473.19 593.41 473.29 593.36 473.37 593.33 473.44 593.32 473.48 593.3 473.52 593.31 473.54 593.35 473.59 593.38 473.63 593.43 473.67 593.45 473.71 593.49 473.8 593.49 473.86 593.5 473.94 593.51 473.98 593.53 474.04 593.55 474.07 593.58 474.11 593.63 474.15 593.65 474.17 593.71 474.18 593.77 474.19 593.85 474.22 593.91 474.24 593.97 474.28 594.03 474.32 594.08 474.35 594.17 474.42 594.2 474.45 594.18 474.5 594.18 474.52 594.16 474.57 594.13 474.64 594.12 474.72 594.08 474.8 594.04 474.88 594.02 474.92 593.97 474.96 593.94 474.99 593.88 475.05 593.79 475.11 593.74 475.17 593.73 475.18 593.66 475.2 593.56 475.2 593.47 475.18 593.39 475.16 593.33 475.13 593.26 475.11 593.19 475.1 593.14 475.09 593.11 475.1 593.04 475.11 592.96 475.13 592.89 475.13 592.81 475.13 592.73 475.12 592.63 475.11 592.58 475.1 592.52 475.09 592.4 475.06 592.26 475.02 592.12 474.97 592.04 474.95 591.96 474.93 591.93 474.91 591.85 474.9 591.83 474.88 591.81 474.85 591.78 474.8 591.73 474.72 591.7 474.63 591.65 474.54 591.62 474.47 591.56 474.41 591.51 474.38 591.44 474.31 591.34 474.24 591.25 474.21 591.2 474.18 591.13 474.16 591.04 474.15 590.95 474.14 590.88 474.11 590.84 474.08 590.77 474.01 590.71 473.97 590.64 473.89 590.62 473.86 590.57 473.81 590.54 473.76 590.51 473.71 590.51 473.64 590.52 473.59 590.52 473.48 590.52 473.42 590.52 473.37 590.49 473.3 590.47 473.27 590.42 473.25 590.3 473.21 590.23 473.19 590.16 473.19 590.08 473.18 589.91 473.16 589.83 473.14 589.73 473.13 589.61 473.12 589.57 473.13 589.5 473.16 589.4 473.2 589.42 473.16 589.43 473.1 589.43 473.08 589.43 473.03 589.4 472.99 589.38 472.93 589.36 472.9 589.34 472.85 589.31 472.81 589.29 472.78 589.23 472.73 589.18 472.69 589.15 472.66 589.13 472.63 589.13 472.6 589.12 472.59 589.12 472.56 589.14 472.49 589.19 472.4 589.2 472.36 589.22 472.33 589.29 472.28 589.34 472.24 589.44 472.21 589.53 472.16 589.65 472.09 589.7 472.06 589.75 472.01 589.77 471.99 589.79 471.94 589.8 471.88 589.77 471.8 589.74 471.75 589.7 471.66 589.65 471.58 589.62 471.53 589.58 471.49 589.5 471.4 589.41 471.29 589.32 471.24 589.23 471.22 589.3 471.17 589.39 471.11 589.46 471.06 589.56 471.02 589.66 470.94 589.71 470.87 589.72 470.85 589.74 470.78 589.77 470.74 589.79 470.69 589.82 470.64 589.83 470.61 589.86 470.56 589.93 470.46 589.94 470.45 589.95 470.37 589.93 470.3 589.94 470.29 589.93 470.21 589.93 470.18 589.91 470.12 589.89 470.06 589.87 469.94 589.87 469.94 588.67 468.63 590.35 467.15 590.77 466.45 590.51 461.54 591.1 461.42 592.69 461.26 594.09 460.79 595 459.95 598.71 457.73 599.91 456.88 598.59 456.23 598.09 455.36 597.29 451.91 597.35 450.53 597.74 449.11 598.79 447.09 598.5 446.75 598.12 445.62 598.07 444.39 598.21 443.4 598.16 443.4 597.8 443.54 597.64 443.59 597.38 443.61 597.22 443.58 597.06 443.54 596.93 443.42 596.76 443.29 596.61 443.2 593.97 444.44 591.77 445.37 591.72 445.46 591.67 445.53 591.56 445.6 591.4 445.66 591.39 445.67 592 446.21 592.35 446.9 592.39 447.42 592.1 448.13 591 448.74 590.01 449.05 589.96 449.07 589.76 449.13 588.37 449.13 586.07 449.97 586.01 450.16 586.01 450.16 586.01 450.17 586.03 450.21 585.96 450.34 585.73 451.09 585.58 451.23 585.58 451.26 585.57 451.33 585.53 451.36 585.52 451.39 585.52 451.46 585.53 451.54 585.52 451.6 585.46 451.66 585.33 451.78 585.31 451.83 585.31 451.89 585.3 451.97 585.13 451.95 585.06 451.96 584.8 452 584.73 452 584.73 452 583.65 452.57 582.5 452.98 581.82 452.76 580.7 453.11 580.25 452.44 580.18 452.4 580.15 452.39 579.03 452.74 578.58 452.07 577.89 451.56 577.5 451.56 576.67 451.81 575.81 452.45 575.31 453.39 575.32 453.48 575.34 453.64 575.33 453.71 575.31 453.75 575.25 453.78 575.16 453.78 574.85 454.61 574.32 455.3 573.78 455.29 572.92 454.6 572.66 454.93 572.12 454.93 571.18 454.18 570.78 453.65 569.99 454.23 569.78 454.53 569.98 454.7 570.03 454.77 570.04 454.8 570.05 454.93 570.06 454.95 570.09 455.02 570.18 455.19 570.29 455.39 570.36 455.57 570.38 455.65 570.35 455.8 570.3 455.98 570.32 456.11 570.33 456.19 570.18 456.23 570.07 456.24 569.99 456.27 569.69 456.34 569.6 456.38 569.54 456.46 569.48 456.55 569.39 456.64 569.28 456.7 569.17 456.77 569.09 456.81 569.07 456.8 568.95 456.73 568.89 456.71 568.81 457 568.59 457.14 567.95 457.11 566.75 456.76 566.29 456.74 565.26 456.45 565.24 456.72 565.44 458.02 565.68 458.5 566.16 459.07 566.17 459.69 565.57 460.43 564.72 460.77 563.7 460.93 560.6 460.81 560.15 460.98 559.6 460.47 558.96 460.45 558.5 460.62 557.9 460.07 557.73 459.62 557 458.43 556.43 457.84 556.15 457.13 555.62 456.6 555.7 455.7 555.45 455.13 554.82 454.89 554.05 454.35 553.38 453.52 552.86 452.87 552.76 452.44 552.15 451.15 551.21 450.26 550.42 449.76 550.33 449.22 550.66 448.69 550.73 447.8 550.95 447.39 551.05 446.88 551.31 446.43 551.97 445.92 551.68 445.62 551.29 445.34 551.55 444.8 551.56 444.52 551.84 443.77 551.91 443.26 551.81 442.67 551.63 442.33 551.34 442.21 551.04 441.78 550.83 441.8 550.66 441.76 550.62 441.77 550.5 441.8 550.43 441.8 550.39 441.78 550.34 441.72 549.82 441.7 549.54 441.43 549.16 441.46 548.81 441.39 548.14 441.37 547.67 440.9 547.26 440.27 546.72 439.86 546.93 438.83 546.47 438.2 546.4 437.7 546.14 437.22 545.5 436.71 545.25 436.3 544.75 435.97 543.28 435.37 543.04 435.5 542.42 435.51 541.87 434.93 541.81 434.94 541.35 435.18 540.73 435.19 539.79 434.2 539.07 433.85 538.65 433.8 537.95 433.35 537.43 433.29 536.61 432.91 535.96 432.26 536.43 430.69 537.12 429.6 538.57 429.52 539.13 428.87 538.89 428.12 538.03 427.66 537.66 427.07 535.77 425.88 534.9 425.01 534.56 424.66 534.54 424.55 534.51 424.38 534.27 424 533.67 423.86 533.41 423.8 533.18 423.55 532.49 422.81 532.08 422.15 531.79 422.23 531.4 421.93 531.08 421.49 531.05 421.41 530.98 421.36 530.55 421.82 530.08 421.94 529.69 421.64 529.37 421.2 529.25 420.89 529.17 420.74 528.77 420.58 527.8 420.72 527.8 420.73 527.86 420.96 527.84 421.16 527.72 421.37 527.57 421.59 527.5 421.69 527.44 421.69 527.33 421.93 527.01 422.2 527.01 422.2 527.1 422.49 527.04 422.54 526.95 422.58 526.8 422.61 526.79 422.61 526.65 422.91 526.3 423.02 525.63 423.06 525.14 423.24 523.59 424.42 522.97 424.47 522.53 424.74 522.3 424.65 521.84 424.63 520.54 424.72 520.17 424.81 519.82 424.89 519.71 424.72 519.7 424.76 519.59 424.91 519.49 425.01 519.39 425.22 519.36 425.31 519.3 425.51 519.21 425.69 519.12 425.89 519.03 426.01 518.92 426.13 518.67 426.32 518.36 426.53 518.28 426.58 518.11 426.75 517.29 427.19 517.17 427.3 516.99 427.37 516.92 427.39 516.92 427.39 516.5 427.62 516.05 427.59 515.61 427.74 515.5 427.9 515.29 428.11 515 428.32 515 428.32 514.6 428.72 514.17 429.24 514.17 429.24 514.17 429.25 513.93 429.63 513.7 429.83 513.52 429.98 513.37 430.1 513.23 430.19 513.04 430.24 512.84 430.28 512.71 430.31 512.53 430.38 512.32 430.45 512.13 430.59 511.95 430.7 511.75 430.78 511.6 430.84 511.43 430.89 511.15 430.93 510.91 430.96 510.71 431.05 510.59 431.07 510.46 431.05 510.27 430.95 510.03 430.66 509.98 430.61 509.66 430.44 509.15 430.51 509.14 430.52 509.12 430.54 509.05 430.64 509.03 430.77 508.9 430.81 508.81 430.83 508.73 430.83 508.68 430.83 508.32 431.07 508.26 431.11 507.87 431.48 507.86 431.49 507.86 431.49 507.7 431.56 507.66 431.59 507.56 431.68 507.37 431.76 507.32 431.82 507.25 431.91 507.2 431.98 507.15 432.1 507.11 432.2 507.11 432.2 507.11 432.2 507.05 432.29 506.97 432.35 506.92 432.38 506.92 432.38 506.88 432.44 506.85 432.51 506.81 432.65 506.56 432.8 506.35 432.89 506.22 432.96 506.2 432.96 506.11 432.99 506.02 433 505.75 432.94 505.48 432.88 505.36 432.85 505.28 432.82 505.15 432.73 505.03 432.67 505 432.65 504.96 432.65 504.93 432.65 504.93 432.65 504.91 432.65 504.87 432.64 504.82 432.61 504.75 432.58 504.75 432.58 504.05 432.58 502.81 432.15 502.41 431.69 502.33 431.25 502.09 431.26 501.92 431.24 501.73 431.18 501.64 431.13 501.52 431.03 501.47 430.99 501.32 430.88 501.02 430.77 501.01 430.76 500.93 430.8 500.16 430.9 499.49 430.59 499.47 430.6 499.23 430.76 498.96 430.91 498.82 430.98 498.72 431.09 498.65 431.23 498.64 431.3 498.63 431.43 498.56 431.56 498.55 431.63 498.54 431.69 498.52 431.7 498.33 431.79 498.21 431.97 498.08 432.16 497.97 432.33 497.89 432.47 497.85 432.5 497.73 432.52 497.5 432.56 497.33 432.6 497.25 432.64 497.19 432.7 497.14 432.79 496.95 432.96 496.75 433.08 496.64 433.22 496.6 433.26 496.54 433.36 496.54 433.43 496.57 433.62 496.61 433.8 496.67 433.96 496.79 434.09 496.84 434.11 496.9 434.16 497.08 434.29 497.09 434.33 497.08 434.52 497.04 434.66 497.02 434.84 497.03 434.99 496.91 435.05 496.75 435.16 496.73 435.24 496.73 435.39 496.75 435.51 496.73 435.59 496.66 435.77 496.62 435.93 496.59 436.11 496.55 436.26 496.48 436.44 496.4 436.56 496.34 436.6 496.25 436.67 496.09 436.76 495.89 436.79 495.85 436.79 495.71 436.81 495.51 436.91 495.4 436.96 495.37 436.98 495.26 437.07 495.11 437.16 494.92 437.16 494.72 437.16 494.66 437.18 494.4 437.3 494.28 437.34 494.15 437.36 494.01 437.38 493.81 437.29 493.68 437.25 493.56 437.23 493.45 437.22 493.31 437.2 493.11 437.21 492.96 437.24 492.9 437.24 492.84 437.2 492.77 437.15 492.71 437.04 492.68 436.95 492.67 436.91 492.6 436.94 491.78 436.84 491.14 436.59 491.04 436 490.62 435.84 490.04 435.03 490.21 434.15 489.81 433.73 489.71 433.78 489.6 433.84 489.41 433.9 489.35 433.89 489.05 433.87 489.01 433.78 488.99 433.72 488.86 433.62 488.72 433.54 488.56 433.46 488.46 433.4 487.79 433.51 487.03 433.2 486.32 432.78 485.89 432.1 485.61 431.87 485.58 431.9 485.48 431.99 485.38 432.12 485.27 432.27 485.15 432.42 484.99 432.47 484.89 432.48 484.89 432.48 484.84 432.49 484.79 432.49 484.57 432.48 484.49 432.47 484.49 432.47 484.44 432.47 484.36 432.46 484.33 432.45 484.29 432.44 484.33 432.39 484.34 432.34 484.35 432.33 484.4 432.24 484.4 432.2 484.39 432.16 484.33 432.06 484.26 431.96 484.18 431.87 484.12 431.82 484.06 431.75 483.59 432.25 482.7 432.23 482.62 431.84 482.44 431.5 481.58 431.02 481.27 430.71 481.2 430.44 481.54 430.31 481.73 430.02 481.62 429.13 480.57 428.95 479.35 428.13 479.34 428.13 479.21 428.13 479.14 428.12 479.1 428.12 479.07 428.1 479.05 428.08 479.03 428.04 479 427.99 479 427.98 477.62 427.65 476.89 427.1 476.56 426.46 476.48 426.66 476.39 426.83 476.33 426.94 476.29 427.03 476.19 427.28 476.12 427.4 476.05 427.48 475.97 427.55 475.97 427.55 475.97 427.55 475.87 427.62 475.77 427.68 475.7 427.7 475.63 427.7 475.57 427.69 475.49 427.68 475.31 427.65 475.24 427.64 475.06 427.61 474.97 427.6 474.86 427.58 474.8 427.56 474.68 427.53 474.63 427.53 474.57 427.54 474.51 427.55 474.44 427.57 474.39 427.58 474.34 427.59 474.29 427.59 474.27 427.58 474.27 427.56 474.29 427.54 474.32 427.53 474.39 427.51 474.45 427.49 474.53 427.48 474.62 427.46 474.69 427.43 474.75 427.37 474.83 427.28 474.89 427.2 474.94 427.14 475 427.06 475.06 426.98 475.1 426.91 475.12 426.82 475.14 426.74 475.13 426.68 475.11 426.54 475.04 426.24 475.02 426.15 474.82 426.53 474.71 427.04 474.4 427.33 473.26 427.25 473.72 426.62 473.33 425.17 473.5 424.81 473.52 424.46 473.25 424.32 473.25 422.93 472.26 422.79 472.14 422.47 472.17 422.09 472.05 421.6 472.2 421.09 472.25 420.61 472.2 420.61 472.04 420.61 471.88 420.58 471.73 420.55 471.64 420.53 471.42 420.51 471.27 420.48 471.11 420.43 470.97 420.37 470.81 420.3 470.66 420.25 470.61 420.25 470.59 420.25 470.51 420.23 470.45 420.23 470.44 420.22 470.2 420.18 470.19 420.21 470.16 420.27 470.12 420.34 470.09 420.4 470.05 420.46 469.95 420.55 469.92 420.58 469.85 420.63 469.81 420.66 469.79 420.7 469.77 420.76 469.76 420.82 469.75 420.91 469.74 420.98 469.73 421.04 469.73 421.05 469.71 421.09 469.7 421.11 469.63 421.14 469.5 421.17 469.31 421.21 469.14 421.26 468.95 421.34 468.85 421.38 468.73 421.42 468.61 421.43 468.46 421.45 468.28 421.48 468.12 421.49 468.02 421.49 467.96 421.48 467.9 421.45 467.82 421.41 467.8 421.4 467.8 421.4 467.74 421.37 467.67 421.36 467.6 421.35 467.6 421.35 467.54 421.34 467.45 421.35 467.37 421.36 467.3 421.38 467.23 421.39 467.16 421.37 467.12 421.35 467.08 421.33 467 421.27 466.88 421.21 466.82 421.17 465.99 421.2 465.66 420.91 465.08 419.96 464.32 419.91 463.69 419.42 462.47 418.79 462.42 418.8 462.39 418.81 462.37 418.82 462.33 418.9 462.22 419.09 462.14 419.19 462.06 419.26 461.93 419.35 461.91 419.37 461.81 419.48 461.77 419.52 461.69 419.6 461.64 419.62 461.63 419.63 461.61 419.62 461.55 419.6 461.45 419.56 461.26 419.51 461.1 419.47 461.05 419.46 460.94 419.45 460.88 419.45 460.85 419.46 460.75 419.47 460.43 419.57 459.82 419.7 459.79 419.71 459.47 419.74 459.39 419.72 459.36 419.69 459.29 419.6 459.18 419.5 459.04 419.4 458.91 419.35 458.2 419.55 457.75 419.27 457.49 419.21 457.02 418.9 456.59 418.51 456.5 418.53 456.44 418.61 455.69 418.61 455.51 418.54 455.46 418.48 455.41 418.39 455.33 418.3 455.19 418.14 455.11 418.13 454.96 418.16 454.88 418.15 454.74 418.04 454.62 417.87 454.5 417.71 454.42 417.63 454.45 417.56 454.51 417.42 454.48 417.3 454.4 417.09 454.33 417.01 454.17 416.96 453.83 416.85 453.53 416.71 453.41 416.72 453.38 416.66 453.09 416.6 451.66 415.69 451.61 415.7 451.54 415.62 451.49 415.59 450.62 415.54 449.95 415.06 449.65 414.53 449.52 413.98 449.21 413.37 448.18 411.95 447.85 411.25 447.8 410.76 447.22 410.26 447.24 409.87 447.65 409.17 447.58 408.79 446.61 408.56 445.86 407.56 445.84 406.85 445.63 406.7 445.55 406.77 445.27 407.02 445.19 407.02 445.09 406.99 445.01 407.03 444.77 407.06 444.45 407.08 444.17 407.04 443.9 406.97 443.71 406.92 443.7 406.91 443.7 406.91 443.69 406.9 443.33 407.12 442.5 407.04 441.96 406.74 441.45 406.2 441.78 405.61 440.83 405.07 440.94 404.45 440.31 404.09 439.73 404.02 439.5 403.59 438.94 403.35 438.32 402.62 438.12 402.03 438.18 401.57 437.9 401.22 437.78 400.83 438.01 400.37 438.5 399.92 438.65 399.66 438.31 398.73 439.87 397.54 439.72 396.86 439.1 396.53 439.3 395.79 439.79 394.93 440.13 394.54 440.04 394.5 440.04 394.5 440 394.49 439.85 394.37 439.55 394.16 439.52 394.14 439.52 394.14 439.42 394.08 439.09 393.84 438.92 393.68 Z M 440.91 393.77 440.88 393.49 440.62 393.67 440.52 393.8 440.47 393.96 440.45 394.19 440.91 393.77 Z" fill-rule="evenodd"/>
</g>
</svg>